<?xml version="1.0" encoding="utf-8"?>
<!-- Generator: Adobe Illustrator 18.1.1, SVG Export Plug-In . SVG Version: 6.00 Build 0)  -->
<svg version="1.1" id="Слой_1" xmlns="http://www.w3.org/2000/svg" xmlns:xlink="http://www.w3.org/1999/xlink" x="0px" y="0px"
	 viewBox="0 0 80 80" enable-background="new 0 0 80 80" xml:space="preserve">
<path fill="#95AD3D" d="M59.3219,53.4958l-0.5155-0.4287v-4.5683H21.653v4.0232c-0.0543-0.0092-0.1126-0.0148-0.1661-0.0246
	l-1.2006,0.9985c-2.5407,2.1134-6.5691,5.0617-11.8394,7.6345c1.7542,3.2839,3.574,4.8877,5.5345,4.8877
	c1.2606,0,2.7074-0.6394,4.2988-1.9011l3.861-3.0584c-0.8387-0.7379,0.9084,0.7021,0.2346,0.1936l-1.0671,4.7661
	c-0.0345,0.8332,1.2482,2.9955,2.068,4.1486c3.1839-0.5395,7.0061-2.9203,8.2666-4.2536l2.0185-2.1322l1.116,2.7161
	c1.521,3.7135,3.8605,5.4586,5.0272,6.0031c1.1656-0.5456,3.5049-2.2908,5.0272-6.0031l1.1133-2.7173l2.0198,2.1334
	c1.2457,1.3173,5.6038,3.5136,8.8433,4.1137c0.7901-1.2024,1.3864-3.2001,1.4592-4.1618l-0.802-3.9082
	c-0.2975,0.0702-0.6038,0.1167-0.9226,0.1167c-2.2185,0,3.1253-1.1267,1.8263-0.4585l3.0046,2.5399
	c1.5913,1.3433,3.032,2.0248,4.2851,2.026c1.9074,0,3.7159-1.6556,5.5062-5.0494C65.8934,58.5586,61.8638,55.6106,59.3219,53.4958z"
	/>
<path fill="#92A53B" d="M56.3088,42.1835l-1.3336-1.1008c-0.1035,0.0043-0.2038,0.0132-0.3077,0.0169v-5.5772H25.3762v5.64
	L24.381,41.991c-2.3065,1.9225-5.4848,4.31-8.5282,5.7381c0.5013,1.1464,1.3756,2.611,2.7795,3.4112l1.5574,0.8871
	c1.3075,0.276,2.695,0.2519,3.8451-0.1382c1.4994-0.5052,2.815-1.2444,3.6939-1.8088c-0.9622-0.8063,5.2672,0.9876,2.8826,1.0315
	c1.0913,2.5712,2.3406,4.724,2.8801,4.8474c0.7343-0.0337,3.5798-3.0544,6.1828-6.6003l0.5565-0.7571l0.5564,0.7571
	c2.6029,3.5459,5.4469,6.5667,6.2108,6.5962c0.5266-0.1238,1.8169-2.3671,2.9242-5.0143c-1.8502-0.5164,0,0.0309,2.2447,0.0309
	c0.0572,0.0896,0.0975,0.1744,0.1758,0.268c0.551,0.6562,1.7918,1.4874,4.5807,1.7151c1.0603,0.0735,2.5939-0.5751,3.8785-1.2306
	l1.0256-0.5841c1.4024-0.8002,2.2781-2.2646,2.7793-3.4112C61.6414,46.3358,58.5533,44.0347,56.3088,42.1835z"/>
<path fill="#9CB24B" d="M33.3065,29.6948l0.3129-0.1513c0.1798,0.0111,0.3576,0.0278,0.5419,0.0278
	c0.3928,0,0.807-0.0252,1.3139-0.0849c0.213,0,0.4166,0.1956,0.7017,0.5334c-0.4915,0.7021,7.6528,1.0109,7.3085,0.3903
	c0.2438-0.3239,0.4622-0.6474,0.6559-0.9344c0.0278-0.0412,0.0543-0.0797,0.0795-0.1181l0.4685,0.0623
	c0.8103,0.1023,1.5604,0.1123,2.2738,0.069l1.5619,1.4136c0.2416,0.2176,5.3237,4.7875,10.2813,7.0597
	c-0.4911,1.1175-1.3406,2.5378-2.6904,3.3261l-1.5182,0.8871c-0.1439,0.0085-0.2838,0.0222-0.4342,0.0222
	c-0.8641,0-1.8024-0.1446-2.7887-0.4299c-2.0558-0.5945-4.1796-1.7746-5.0862-2.2777l-0.2269-0.1261
	c-0.3013-0.1644-0.6782-0.0808-0.8786,0.2004c-0.0957,0.134-0.304,0.4991-0.5842,1.0009c-2.6174,4.6813-3.5983,5.455-3.9525,5.4922
	c-0.957-0.2443-4.1544-4.8658-5.0119-6.3298c-0.1009-0.2747-0.3597-0.4446-0.637-0.4446c-0.073,0-0.1487,0.0119-0.2217,0.0371
	c-0.0996,0.0345-0.1845,0.089-0.2549,0.1567c-0.3172,0.223-2.1368,1.2729-5.3795,2.2963c-0.6292,0.1978-1.2544,0.2987-1.8582,0.2987
	c-0.4448,0-0.8656-0.0608-1.2703-0.1561l-1.9613-0.8535c-0.5121-0.3344-0.9753-0.7297-1.3941-1.1544
	c-0.403-0.5489-0.741-1.2236-1.0046-1.9212C25.4185,36.2397,30.4068,32.1626,33.3065,29.6948z"/>
<path fill="#AAC65A" d="M37.7071,21.6309c0.6383,0.1551,1.3964,0.2607,2.2983,0.2607c0.9325,0,1.677-0.1541,2.2719-0.3854
	l8.99,7.5204c-0.1902,0.5487-0.5821,1.2178-1.3893,1.5939l-0.9388,0.4376c-1.0454,0.2522-2.25,0.3151-3.6237,0.1403l-0.9479-0.1263
	c-0.2774-0.0391-0.5444,0.077-0.7056,0.3005c-0.1089,0.1494-0.2307,0.3295-0.3644,0.53c-0.1298,0.192-0.2812,0.4128-0.4424,0.6389
	c-0.8402-0.7624-1.9439-1.2399-3.1649-1.2399c-1.0645,0-2.0371,0.3664-2.8285,0.9621c-0.5203-0.5951-1.1237-1.1036-2.075-0.9866
	c-0.9842,0.1219-1.8656,0.0868-2.6783-0.0764l-1.6377-0.8575c-0.9477-0.6529-1.2932-1.0594-1.5197-1.4295L37.7071,21.6309z"/>
<path fill="#D8A93D" d="M38.7084,17.3645l-2.267,5.028c0,0,1.7723,1.243,3.7535,1.243c1.9811,0,3.501-1.243,3.501-1.243
	l-2.6359-5.028H38.7084z"/>
<polygon fill="#FAC746" points="50.3251,10.4876 43.1091,9.5127 39.821,3.0158 36.6644,9.5773 29.4701,10.6961 34.7341,15.726 
	33.5751,22.9143 39.9861,19.4616 46.4645,22.7856 45.1621,15.6217 "/>
<circle fill="#EB5947" cx="39.4876" cy="33.4989" r="4.0124"/>
<circle fill="#EB5947" cx="29.4701" cy="50.0699" r="4.0124"/>
<circle fill="#EB5947" cx="51.2673" cy="50.0699" r="4.0124"/>
<circle fill="#EB5947" cx="57.4339" cy="61.4497" r="4.0124"/>
<circle fill="#EB5947" cx="21.653" cy="61.4497" r="4.0124"/>
<circle fill="#EB5947" cx="40.2297" cy="59.8178" r="4.0124"/>
<circle fill="#FAC746" cx="29.8333" cy="38.3333" r="1.6667"/>
<circle fill="#FAC746" cx="50.3251" cy="38.3333" r="1.6667"/>
<circle fill="#FAC746" cx="43.6959" cy="44.0742" r="1.6667"/>
<circle fill="#FAC746" cx="37.1419" cy="44.0742" r="1.6667"/>
<circle fill="#FAC746" cx="40.2297" cy="51.7366" r="1.6667"/>
<circle fill="#FAC746" cx="30.6178" cy="59.1039" r="1.6667"/>
<circle fill="#FAC746" cx="48.9216" cy="59.1039" r="1.6667"/>
<circle fill="#FAC746" cx="48.9215" cy="67.1287" r="1.6667"/>
<circle fill="#FAC746" cx="21.653" cy="52.522" r="1.6667"/>
<circle fill="#FAC746" cx="58.4748" cy="52.522" r="1.6667"/>
</svg>
