<svg height="512pt" viewBox="0 -3 512 512" style="opacity: 0.25;" width="512pt" xmlns="http://www.w3.org/2000/svg"><path d="m496.582031 51.164062c8.519531 0 15.417969 6.894532 15.417969 15.417969v423.707031c0 8.507813-6.898438 15.417969-15.417969 15.417969h-481.164062c-8.519531 0-15.417969-6.910156-15.417969-15.417969v-423.707031c0-8.523437 6.898438-15.417969 15.417969-15.417969zm0 0" fill="#beebfa"/><path d="m496.582031 51.164062c8.519531 0 15.417969 6.894532 15.417969 15.417969v423.707031c0 8.507813-6.898438 15.417969-15.417969 15.417969h-240.582031v-454.542969zm0 0" fill="#7ed8f6"/><path d="m496.582031 51.164062c8.519531 0 15.417969 6.894532 15.417969 15.417969v112.570313h-512v-112.570313c0-8.523437 6.898438-15.417969 15.417969-15.417969zm0 0" fill="#2fc0f0"/><path d="m496.582031 51.164062c8.519531 0 15.417969 6.894532 15.417969 15.417969v112.570313h-256v-127.988282zm0 0" fill="#0d91bd"/><path d="m131.265625 0c-8.515625 0-15.417969 6.902344-15.417969 15.417969v71.484375c0 8.515625 6.902344 15.417968 15.417969 15.417968s15.417969-6.902343 15.417969-15.417968v-71.484375c0-8.515625-6.902344-15.417969-15.417969-15.417969zm0 0" fill="#beebfa"/><path d="m380.734375 0c-8.515625 0-15.417969 6.902344-15.417969 15.417969v71.484375c0 8.515625 6.902344 15.417968 15.417969 15.417968s15.417969-6.902343 15.417969-15.417968v-71.484375c0-8.515625-6.902344-15.417969-15.417969-15.417969zm0 0" fill="#7ed8f6"/><path d="m323.894531 434.660156c-8.515625 0-15.417969-6.902344-15.417969-15.417968v-74.90625l-4.78125 3.441406c-6.914062 4.96875-16.550781 3.394531-21.519531-3.519532-4.972656-6.914062-3.394531-16.546874 3.515625-21.515624l29.203125-21c4.695313-3.375 10.886719-3.839844 16.035157-1.199219 5.148437 2.636719 8.382812 7.9375 8.382812 13.71875v104.980469c0 8.515624-6.902344 15.417968-15.417969 15.417968zm0 0" fill="#0d91bd"/><path d="m244.117188 390.136719c0 24.550781-19.976563 44.523437-44.523438 44.523437h-12.257812c-24.550782 0-44.523438-19.972656-44.523438-44.523437v-46.769531c0-24.550782 19.972656-44.523438 44.523438-44.523438h12.257812c24.550781 0 44.523438 19.972656 44.523438 44.523438zm-56.78125-60.457031c-7.550782 0-13.691407 6.140624-13.691407 13.6875v46.769531c0 7.546875 6.144531 13.6875 13.691407 13.6875h12.253906c7.546875 0 13.6875-6.140625 13.6875-13.6875v-46.769531c0-7.546876-6.140625-13.6875-13.6875-13.6875zm0 0" fill="#2fc0f0"/><path d="m105.789062 434.660156h-70.46875c-8.515624 0-15.417968-6.902344-15.417968-15.417968v-11.898438c0-30.882812 25.125-56.007812 56.007812-56.007812h7.265625c3.964844 0 7.195313-3.230469 7.195313-7.195313v-7.265625c0-3.96875-3.230469-7.195312-7.195313-7.195312h-47.855469c-8.515624 0-15.417968-6.902344-15.417968-15.417969s6.902344-15.417969 15.417968-15.417969h47.855469c20.96875 0 38.03125 17.0625 38.03125 38.03125v7.265625c0 20.96875-17.0625 38.03125-38.03125 38.03125h-7.265625c-12.6875 0-23.210937 9.429687-24.929687 21.652344h54.808593c8.515626 0 15.417969 6.902343 15.417969 15.417969 0 8.515624-6.902343 15.417968-15.417969 15.417968zm0 0" fill="#2fc0f0"/><path d="m427.523438 297.65625h-8.054688c-22.832031 0-41.410156 18.574219-41.410156 41.410156v8.050782c0 22.835937 18.578125 41.414062 41.410156 41.414062 6.035156-.191406 11.0625.625 18.628906-1.375v32.089844c0 8.511718 6.902344 15.417968 15.417969 15.417968s15.417969-6.90625 15.417969-15.417968v-80.179688c0-22.835937-18.578125-41.410156-41.410156-41.410156zm-4.027344 60.035156c-8.0625 0-14.601563-6.535156-14.601563-14.597656s6.539063-14.601562 14.601563-14.601562 14.601562 6.535156 14.601562 14.601562c0 8.0625-6.539062 14.597656-14.601562 14.597656zm0 0" fill="#0d91bd"/><path d="m512 179.152344v69.359375l-60.542969-22.273438c-16.003906-5.890625-33.578125-5.890625-49.582031 0l-41.074219 15.109375c-12.570312 4.625-26.363281 4.625-38.933593 0-35.960938-12.21875-45.734376-19.527344-65.867188-19.527344-8.398438 0-16.796875 1.46875-24.792969 4.417969l-41.074219 15.109375c-12.570312 4.625-26.363281 4.625-38.933593 0l-41.074219-15.109375c-16.003906-5.890625-33.578125-5.890625-49.582031 0l-60.542969 22.273438v-69.359375zm0 0" fill="#ffe9cc"/><path d="m512 179.152344v69.359375l-60.542969-22.273438c-16.003906-5.890625-33.578125-5.890625-49.582031 0l-41.074219 15.109375c-12.570312 4.625-26.363281 4.625-38.933593 0-35.960938-12.21875-45.734376-19.527344-65.867188-19.527344v-42.667968zm0 0" fill="#ffd399"/></svg>