<svg height="480pt" viewBox="-56 0 480 480.13704" width="480pt" xmlns="http://www.w3.org/2000/svg"><path d="m144.070312 88.109375h80v40h-80zm0 0" fill="#fdbd40"/><path d="m360.070312 296.109375c0 97.199219-78.800781 176-176 176-97.203124 0-176-78.800781-176-176 0-97.203125 78.796876-176 176-176 97.199219 0 176 78.796875 176 176zm0 0" fill="#fcf05a"/><g fill="#fdbd40"><path d="m320.070312 304.109375c-4.421874 0-8-3.582031-8-8 0-7.578125-.664062-15.140625-1.984374-22.601563-.71875-4.324218 2.175781-8.417968 6.492187-9.183593 4.3125-.769531 8.441406 2.078125 9.257813 6.382812 1.488281 8.386719 2.234374 16.886719 2.234374 25.402344 0 4.417969-3.582031 8-8 8zm0 0"/><path d="m304.109375 240.109375c-2.957031 0-5.671875-1.625-7.066406-4.234375-22.230469-41.738281-65.683594-67.800781-112.972657-67.765625-4.421874 0-8-3.582031-8-8s3.578126-8 8-8c53.195313-.042969 102.078126 29.277344 127.085938 76.230469 1.324219 2.476562 1.25 5.46875-.195312 7.878906-1.441407 2.410156-4.042969 3.886719-6.851563 3.890625zm0 0"/><path d="m224.070312 48.109375c0 22.089844-17.910156 40-40 40-22.09375 0-40-17.910156-40-40 0-22.09375 17.90625-40 40-40 22.089844 0 40 17.90625 40 40zm0 0"/></g><path d="m192.070312 48.109375c0 4.417969-3.582031 8-8 8-4.421874 0-8-3.582031-8-8s3.578126-8 8-8c4.417969 0 8 3.582031 8 8zm0 0" fill="#fcf05a"/><path d="m184.070312 64.109375c-8.839843 0-16-7.164063-16-16s7.160157-16 16-16c8.835938 0 16 7.164063 16 16s-7.164062 16-16 16zm0-16" fill="#fcf05a"/><path d="m120.070312 168.109375 16 32 40 16-24 24 2.605469 40-34.605469-16-34.609374 16 2.609374-40-24-24 40-16zm0 0" fill="#fdbd40"/><path d="m248.070312 296.109375 16 32 40 16-24 24 2.605469 40-34.605469-16-34.609374 16 2.609374-40-24-24 40-16zm0 0" fill="#fdbd40"/><path d="m310.085938 273.507812c1.320312 7.460938 1.984374 15.023438 1.984374 22.601563 0 4.417969 3.578126 8 8 8 4.417969 0 8-3.582031 8-8 0-8.515625-.746093-17.015625-2.234374-25.402344-.816407-4.304687-4.945313-7.152343-9.257813-6.382812-4.316406.765625-7.210937 4.859375-6.492187 9.183593zm0 0"/><path d="m176.070312 160.109375c0 4.417969 3.578126 8 8 8 47.289063-.035156 90.742188 26.027344 112.972657 67.765625 2.117187 3.824219 6.914062 5.242188 10.769531 3.183594s5.34375-6.832032 3.34375-10.71875c-25.007812-46.953125-73.890625-76.273438-127.085938-76.230469-4.421874 0-8 3.582031-8 8zm0 0"/><path d="m200.070312 48.109375c0 8.835937-7.164062 16-16 16-8.839843 0-16-7.164063-16-16s7.160157-16 16-16c8.835938 0 16 7.164063 16 16zm0 0"/><path d="m179.042969 208.675781-37.175781-14.863281-14.636719-29.28125c-1.503907-2.519531-4.226563-4.066406-7.160157-4.066406-2.9375 0-5.65625 1.546875-7.160156 4.066406l-14.640625 29.28125-37.175781 14.863281c-2.5 1-4.328125 3.1875-4.867188 5.824219-.539062 2.632812.28125 5.363281 2.1875 7.265625l21.4375 21.4375-2.398437 36.386719c-.183594 2.8125 1.128906 5.515625 3.453125 7.113281 2.328125 1.597656 5.320312 1.851563 7.882812.667969l31.28125-14.460938 31.253907 14.445313c2.5625 1.183593 5.554687.929687 7.882812-.667969 2.324219-1.597656 3.636719-4.300781 3.453125-7.117188l-2.398437-36.382812 21.4375-21.4375c1.90625-1.902344 2.726562-4.632812 2.1875-7.265625-.542969-2.636719-2.367188-4.824219-4.867188-5.824219zm-32.628907 25.777344c-1.628906 1.625-2.476562 3.878906-2.328124 6.175781l1.734374 26.566406-22.398437-10.351562c-2.128906-.980469-4.578125-.980469-6.707031 0l-22.398438 10.351562 1.753906-26.566406c.148438-2.296875-.699218-4.550781-2.328124-6.175781l-15.425782-15.425781 28.742188-11.488282c1.820312-.726562 3.3125-2.101562 4.1875-3.855468l8.824218-17.6875 8.839844 17.6875c.875 1.753906 2.363282 3.128906 4.183594 3.855468l28.742188 11.488282zm0 0"/><path d="m307.042969 336.675781-37.175781-14.863281-14.636719-29.28125c-1.503907-2.519531-4.226563-4.066406-7.160157-4.066406-2.9375 0-5.65625 1.546875-7.160156 4.066406l-14.640625 29.28125-37.175781 14.863281c-2.5 1-4.328125 3.1875-4.867188 5.824219-.539062 2.632812.28125 5.363281 2.1875 7.265625l21.4375 21.4375-2.398437 36.386719c-.183594 2.8125 1.128906 5.515625 3.453125 7.113281 2.328125 1.597656 5.320312 1.851563 7.882812.667969l31.28125-14.460938 31.253907 14.445313c2.5625 1.183593 5.554687.929687 7.882812-.667969 2.324219-1.597656 3.636719-4.300781 3.453125-7.117188l-2.398437-36.382812 21.4375-21.4375c1.90625-1.902344 2.726562-4.632812 2.1875-7.265625-.542969-2.636719-2.367188-4.824219-4.867188-5.824219zm-32.628907 25.777344c-1.628906 1.625-2.476562 3.878906-2.328124 6.175781l1.734374 26.566406-22.398437-10.351562c-2.128906-.980469-4.578125-.980469-6.707031 0l-22.398438 10.351562 1.753906-26.566406c.148438-2.296875-.699218-4.550781-2.328124-6.175781l-15.425782-15.425781 28.742188-11.488282c1.820312-.726562 3.3125-2.101562 4.1875-3.855468l8.824218-17.6875 8.796876 17.6875c.875 1.753906 2.367187 3.128906 4.183593 3.855468l28.746094 11.488282zm0 0"/><path d="m136.070312 88.109375v30.398437c-89.070312 24.070313-146.542968 110.378907-134.402343 201.839844 12.140625 91.460938 90.136719 159.789063 182.402343 159.789063 92.261719 0 170.257813-68.328125 182.398438-159.789063 12.140625-91.460937-45.332031-177.769531-134.398438-201.839844v-30.398437c0-4.417969-3.582031-8-8-8h-4.320312c17.292969-19.21875 16.257812-48.683594-2.339844-66.640625-18.601562-17.957031-48.082031-17.957031-66.683594 0-18.597656 17.957031-19.632812 47.421875-2.339843 66.640625h-4.316407c-4.421874 0-8 3.582031-8 8zm216 208c0 92.78125-75.21875 168-168 168-92.785156 0-168-75.21875-168-168 0-92.785156 75.214844-168 168-168 92.738282.101563 167.898438 75.257813 168 168zm-168-184c-10.730468.011719-21.4375.960937-32 2.839844v-18.839844h64v18.839844c-10.566406-1.878907-21.273437-2.828125-32-2.839844zm-32-64c0-17.675781 14.324219-32 32-32 17.671876 0 32 14.324219 32 32 0 17.671875-14.328124 32-32 32-17.675781 0-32-14.328125-32-32zm0 0"/></svg>