<svg height="511pt" viewBox="-28 0 511 511.99948" width="511pt" xmlns="http://www.w3.org/2000/svg"><path d="m406.605469 87.707031c-72.488281-9.167969-120.617188-45.433593-148.5-74.730469-16.46875-17.300781-44.152344-17.300781-60.621094 0-27.882813 29.296876-76.011719 65.5625-148.5 74.730469-30.34375 3.839844-51.769531 31.738281-48.070313 62.097657 9.289063 76.191406 31.832032 202.789062 75.023438 249.980468 38.476562 42.046875 86.878906 79.183594 118.554688 101.617188 19.953124 14.128906 46.65625 14.128906 66.609374 0 31.675782-22.433594 80.078126-59.570313 118.554688-101.617188 43.1875-47.191406 65.734375-173.789062 75.023438-249.980468 3.699218-30.359376-17.730469-58.257813-48.074219-62.097657zm0 0" fill="#377c29"/><path d="m284.160156 36.742188c-10.109375-7.988282-18.777344-16.117188-26.054687-23.765626-16.46875-17.300781-44.152344-17.300781-60.621094 0-27.882813 29.296876-76.011719 65.5625-148.5 74.734376-30.34375 3.835937-51.769531 31.734374-48.070313 62.09375 9.289063 76.191406 31.832032 202.789062 75.023438 249.980468 24.429688 26.695313 52.855469 51.410156 78.464844 71.640625-24.40625-75.832031-29.296875-152.449219-28.265625-208.957031.839843-45.894531 25.082031-88.105469 64.035156-112.394531 53.394531-33.296875 82.246094-86.746094 93.988281-113.332031zm0 0" fill="#378b29"/><path d="m240.800781 448.035156c-7.691406 5.84375-18.320312 5.84375-26.011719 0-23.496093-17.859375-72.980468-56.5625-98.863281-84.847656-5.925781-6.472656-21.46875-28.316406-37.738281-91.113281-8.644531-33.375-15.867188-81.542969-19.621094-109.089844-1.582031-11.621094 6.132813-22.53125 17.648438-24.753906 61.695312-11.921875 107.46875-40.074219 139.203125-67.539063 7.085937-6.132812 17.667969-6.132812 24.753906 0 31.738281 27.464844 77.511719 55.617188 139.203125 67.539063 11.515625 2.222656 19.234375 13.132812 17.648438 24.753906-3.75 27.546875-10.972657 75.71875-19.621094 109.089844-16.269532 62.796875-31.808594 84.636719-37.734375 91.113281-25.886719 28.285156-75.371094 66.988281-98.867188 84.847656zm0 0" fill="#1a2f4c"/><path d="m227.789062 324.757812c-4.527343 0-9.070312-1.507812-12.824218-4.5625l-60.554688-49.273437c-8.707031-7.085937-10.023437-19.890625-2.9375-28.597656 7.085938-8.707031 19.890625-10.023438 28.597656-2.9375l46.390626 37.75 67.890624-67.257813c7.972657-7.898437 20.84375-7.839844 28.746094.136719 7.898438 7.976563 7.839844 20.84375-.136718 28.746094l-80.859376 80.109375c-3.941406 3.902344-9.117187 5.886718-14.3125 5.886718zm0 0" fill="#e00b58"/><path d="m257.351562 84.503906c-6.125-4.566406-11.855468-9.203125-17.179687-13.8125-7.085937-6.132812-17.667969-6.132812-24.753906 0-31.734375 27.464844-77.507813 55.617188-139.203125 67.539063-11.515625 2.222656-19.230469 13.132812-17.648438 24.753906 3.753906 27.546875 10.972656 75.71875 19.621094 109.089844 16.269531 62.796875 31.808594 84.636719 37.738281 91.113281 5.078125 5.550781 11.078125 11.515625 17.601563 17.628906-6.507813-43.652344-8.007813-84.59375-7.390625-118.347656.839843-45.898438 25.078125-88.105469 64.03125-112.394531 29.441406-18.359375 51.417969-42.835938 67.183593-65.570313zm0 0" fill="#1b2f3a"/></svg>