<svg height="512pt" viewBox="0 0 512 512" width="512pt" xmlns="http://www.w3.org/2000/svg"><path d="m75.789062 331h-.789062c-41.351562 0-75-33.648438-75-75 0-8.289062 6.710938-15 15-15s15 6.710938 15 15c0 24.8125 20.1875 45 45 45 8.289062 0 15.394531 6.710938 15.394531 15s-6.3125 15-14.605469 15zm0 0" fill="#e63950"/><path d="m467 271h-7.898438c-4.800781-17.101562-12.300781-33-22.199218-47.402344l40.496094-47.996094c5.101562-6 4.800781-14.703124-.898438-20.101562-22.5-22.5-56.699219-28.199219-85.199219-14.101562l-11.101562 5.703124c-8.398438-4.203124-16.800781-8.101562-25.5-11.101562-1.5-.601562-3.300781-1.199219-5.097657-1.199219h-157.203124c-1.796876 0-3.597657.597657-5.097657 1.199219-76.800781 28.5-126.300781 93.300781-126.300781 165 0 53.699219 27.300781 104.5 75 138.699219v27.300781c0 24.898438 20.097656 45 45.902344 45 21.597656 0 39.296875-15.300781 43.195312-35.699219 13.5 3.898438 29.703125 5.699219 45.902344 5.699219s32.402344-1.800781 45.902344-5.699219c1.5 8.699219 5.695312 16.5 11.996094 22.800781 8.101562 8.097657 19.503906 12.898438 32.101562 12.898438 24.902344 0 45-20.101562 45-45v-22.800781c17.402344-14.398438 31.800781-33.097657 42-53.199219h19c24.902344 0 45-20.101562 45-45v-30c0-24.902344-20.097656-45-45-45zm0 0" fill="#ec5569"/><path d="m512 316v30c0 24.898438-20.097656 45-45 45 0 0-11.199219 0-19 0-10.199219 20.097656-24.597656 38.800781-42 53.199219v22.800781c0 24.898438-20.097656 45-45 45-12.597656 0-24-4.800781-32.101562-12.898438-6.300782-6.300781-10.496094-14.101562-11.996094-22.800781-13.5 3.898438-29.703125 5.699219-45.902344 5.699219v-347.199219h78.601562c1.796876 0 3.597657.597657 5.097657 1.199219 8.699219 3 17.101562 6.898438 25.5 11.101562l11.101562-5.703124c28.5-14.097657 62.699219-8.398438 85.199219 14.101562 5.699219 5.398438 6 14.101562.898438 20.101562l-40.496094 47.996094c9.898437 14.398438 17.398437 30.300782 22.199218 47.402344h7.898438c24.902344 0 45 20.097656 45 45zm0 0" fill="#e63950"/><path d="m361.148438 301.292969c-8.292969 0-15.148438-6.855469-15.148438-15.144531 0-8.292969 6.855469-15.148438 15.148438-15.148438 8.289062 0 15.144531 6.855469 15.144531 15.144531 0 8.292969-6.855469 15.148438-15.144531 15.148438zm0 0" fill="#465a61"/><path d="m376 105c0 36.898438-19.199219 69.300781-48.300781 88.199219h-113.398438c-29.101562-18.898438-48.300781-51.300781-48.300781-88.199219 0-57.898438 47.101562-105 105-105s105 47.101562 105 105zm0 0" fill="#fdbf00"/><path d="m376 105c0 36.898438-19.199219 69.300781-48.300781 88.199219h-56.699219v-193.199219c57.898438 0 105 47.101562 105 105zm0 0" fill="#ff9f00"/><path d="m346 105c0 41.398438-33.601562 75-75 75s-75-33.601562-75-75 33.601562-75 75-75 75 33.601562 75 75zm0 0" fill="#ffd400"/><path d="m271 60c-24.902344 0-45 20.097656-45 45 0 24.898438 20.097656 45 45 45s45-20.101562 45-45c0-24.902344-20.097656-45-45-45zm0 0" fill="#ff9f00"/><path d="m361 196c0 8.398438-6.597656 15-15 15h-150c-8.402344 0-15-6.601562-15-15 0-8.402344 6.597656-15 15-15h150c8.402344 0 15 6.597656 15 15zm0 0" fill="#596c76"/><path d="m346 105c0 41.398438-33.601562 75-75 75v-150c41.398438 0 75 33.601562 75 75zm0 0" fill="#fdbf00"/><path d="m316 105c0 24.898438-20.097656 45-45 45v-90c24.902344 0 45 20.097656 45 45zm0 0" fill="#ff7816"/><path d="m361 196c0 8.398438-6.597656 15-15 15h-75v-30h75c8.402344 0 15 6.597656 15 15zm0 0" fill="#465a61"/></svg>