<svg height="511pt" viewBox="1 0 511.99899 511" width="511pt" style="opacity: 0.05;" xmlns="http://www.w3.org/2000/svg"><path d="m51.015625 395.230469h42.425781v82.167969h-42.425781zm0 0" fill="#7f4a26"/><path d="m259.105469 395.230469h42.425781v82.167969h-42.425781zm0 0" fill="#7f4a26"/><path d="m99.5 71.988281h157.582031v137.378907h-157.582031zm0 0" fill="#6b9dc6"/><path d="m67.175781 177.160156h238.394531v183.828125h-238.394531zm0 0" fill="#ffcf47"/><path d="m345.835938 503.546875h-336.378907v-40.40625h336.378907c26.453124 0 57.109374-10.191406 82.011718-27.265625 21.972656-15.070312 36.171875-33.707031 36.171875-47.484375h40.40625c0 27.9375-19.585937 57.390625-53.730469 80.804687-31.832031 21.832032-70.054687 34.351563-104.859374 34.351563zm0 0" fill="#935d35"/><path d="m243.953125 360.988281h-176.777344v-144.59375h32.324219c42.398438 0 76.773438 34.375 76.773438 76.773438v19.3125h19.171874c26.789063 0 48.507813 21.71875 48.507813 48.507812zm0 0" fill="#f7bc31"/><path d="m211.628906 360.984375c0-26.789063-21.714844-48.507813-48.503906-48.507813h-19.175781v-19.308593c0-42.398438-34.371094-76.769531-76.773438-76.769531h-59.601562v193.089843h319.207031c13.394531 0 24.253906-10.859375 24.253906-24.253906s-10.859375-24.253906-24.253906-24.253906h-115.152344zm0 0" fill="#ef5361"/><path d="m102.53125 288.273438c0 18.96875-15.375 34.34375-34.34375 34.34375s-34.34375-15.375-34.34375-34.34375 15.375-34.34375 34.34375-34.34375 34.34375 15.375 34.34375 34.34375zm0 0" fill="#dc4250"/><path d="m178.796875 359.023438c0 9.484374-7.6875 17.171874-17.171875 17.171874s-17.171875-7.6875-17.171875-17.171874c0-9.484376 7.6875-17.171876 17.171875-17.171876s17.171875 7.6875 17.171875 17.171876zm0 0" fill="#dc4250"/><g fill="#ffcf47"><path d="m160.109375 71.988281h36.367187v105.167969h-36.367187zm0 0"/><path d="m210.25 8.078125c-17.648438 0-31.957031 14.304687-31.957031 31.953125v31.957031h31.957031c17.648438 0 31.953125-14.308593 31.953125-31.957031s-14.304687-31.953125-31.953125-31.953125zm0 0"/><path d="m146.339844 8.078125c17.644531 0 31.953125 14.304687 31.953125 31.953125v31.957031h-31.953125c-17.648438 0-31.957032-14.308593-31.957032-31.957031s14.304688-31.953125 31.957032-31.953125zm0 0"/></g><path d="m504.425781 380.816406h-40.40625c-4.183593 0-7.578125 3.390625-7.578125 7.574219 0 11.003906-13.519531 27.957031-32.878906 41.234375-23.6875 16.242188-52.746094 25.941406-77.726562 25.941406h-36.730469v-38.5h17.675781c17.550781 0 31.828125-14.28125 31.828125-31.832031s-14.277344-31.828125-31.828125-31.828125h-13.632812v-115.757812c0-4.183594-3.394532-7.574219-7.578126-7.574219-4.183593 0-7.574218 3.390625-7.574218 7.574219v115.757812h-53.539063v-168.667969h53.539063v22.605469c0 4.183594 3.390625 7.574219 7.574218 7.574219 4.183594 0 7.578126-3.390625 7.578126-7.574219v-30.183594c0-4.183594-3.394532-7.574218-7.578126-7.574218h-40.910156v-97.601563c0-4.183594-3.390625-7.574219-7.578125-7.574219h-15.75c5.285157-6.722656 8.449219-15.183594 8.449219-24.378906 0-21.796875-17.734375-39.53125-39.53125-39.53125-13.121094 0-24.761719 6.429688-31.957031 16.296875-7.195313-9.867187-18.835938-16.296875-31.953125-16.296875-21.800782 0-39.535156 17.734375-39.535156 39.53125 0 9.195312 3.164062 17.65625 8.449218 24.378906h-15.753906c-4.183594 0-7.574219 3.390625-7.574219 7.574219v97.601563h-24.75c-4.183593 0-7.574219 3.390624-7.574219 7.574218v31.664063h-52.027343c-4.183594 0-7.574219 3.390625-7.574219 7.574219v193.089843c0 4.183594 3.390625 7.578125 7.574219 7.578125h35.863281v38.5h-33.980469c-4.183593 0-7.578125 3.390625-7.578125 7.574219v40.40625c0 4.183594 3.394532 7.574219 7.578125 7.574219h83.980469c4.183594 0 7.578125-3.390625 7.578125-7.574219s-3.394531-7.578125-7.578125-7.578125h-76.40625v-25.25h328.800781c27.925781 0 60.183594-10.691406 86.296875-28.597656 20.726563-14.214844 34.769532-31.25 38.484375-46.15625h25.699219c-3.234375 23.148437-21.015625 47.175781-49.902344 66.984375-30.601562 20.984375-67.261718 33.019531-100.578125 33.019531h-222.085937c-4.1875 0-7.578125 3.394531-7.578125 7.578125s3.390625 7.574219 7.578125 7.574219h222.085937c36.300781 0 76.082031-13.003906 109.148438-35.675782 36.238281-24.847656 57.019531-56.578124 57.019531-87.054687 0-4.183594-3.390625-7.574219-7.574219-7.574219zm-336.738281-301.253906h21.210938v90.019531h-21.210938zm81.820312 90.019531h-45.457031v-90.019531h45.457031zm-39.257812-153.929687c13.441406 0 24.378906 10.9375 24.378906 24.378906s-10.9375 24.378906-24.378906 24.378906h-24.382812v-24.378906c0-13.441406 10.9375-24.378906 24.382812-24.378906zm-88.292969 24.378906c0-13.441406 10.9375-24.378906 24.382813-24.378906 13.441406 0 24.378906 10.9375 24.378906 24.378906v24.378906h-24.378906c-13.445313 0-24.382813-10.9375-24.382813-24.378906zm-14.878906 39.53125h45.457031v90.019531h-45.457031zm122.226563 105.175781v168.667969h-10.605469c-3.710938-27.351562-27.21875-48.503906-55.574219-48.503906h-11.601562v-11.734375c0-43.953125-33.800782-80.140625-76.769532-83.988281v-24.441407zm-214.152344 39.238281h52.023437c38.15625 0 69.195313 31.039063 69.195313 69.191407v19.308593c0 4.183594 3.394531 7.574219 7.578125 7.574219h19.175781c22.554688 0 40.90625 18.339844 40.929688 40.890625 0 .015625-.003907.03125-.003907.046875 0 4.183594 3.394531 7.574219 7.578125 7.574219h93.941406c.03125 0 21.210938-.003906 21.210938-.003906 9.195312 0 16.679688 7.480468 16.679688 16.679687 0 9.195313-7.484376 16.675781-16.679688 16.675781h-311.628906zm236.375 193.089844v38.5h-150.511719v-38.5zm-192.9375 38.5v-38.5h27.273437v38.5zm208.089844 0v-38.5h27.273437v38.5zm0 0"/><path d="m110.109375 288.273438c0-23.113282-18.808594-41.921876-41.921875-41.921876s-41.921875 18.808594-41.921875 41.921876c0 23.113281 18.808594 41.921874 41.921875 41.921874s41.921875-18.804687 41.921875-41.921874zm-68.691406 0c0-14.761719 12.007812-26.769532 26.769531-26.769532s26.769531 12.007813 26.769531 26.769532c0 14.761718-12.007812 26.769531-26.769531 26.769531s-26.769531-12.007813-26.769531-26.769531zm0 0"/><path d="m161.625 383.773438c13.644531 0 24.746094-11.105469 24.746094-24.75 0-13.644532-11.101563-24.75-24.746094-24.75s-24.75 11.105468-24.75 24.75c0 13.644531 11.105469 24.75 24.75 24.75zm0-34.347657c5.289062 0 9.597656 4.308594 9.597656 9.597657 0 5.292968-4.308594 9.597656-9.597656 9.597656-5.292969 0-9.597656-4.304688-9.597656-9.597656 0-5.289063 4.304687-9.597657 9.597656-9.597657zm0 0"/></svg>