<svg height="640" viewBox="-56 0 480 480.137" width="640" xmlns="http://www.w3.org/2000/svg"><path d="M144.07 88.11h80v40h-80zm0 0" fill="#fdbd40"/><path d="M360.07 296.11c0 97.199-78.8 176-176 176-97.203 0-176-78.801-176-176 0-97.204 78.797-176 176-176 97.2 0 176 78.796 176 176zm0 0" fill="#fcf05a"/><path d="M320.07 304.11c-4.422 0-8-3.583-8-8 0-7.579-.664-15.141-1.984-22.602a7.994 7.994 0 0 1 6.492-9.184 7.996 7.996 0 0 1 9.258 6.383 145.38 145.38 0 0 1 2.234 25.402 8 8 0 0 1-8 8zm-15.96-64a8.008 8.008 0 0 1-7.067-4.235c-22.23-41.738-65.684-67.8-112.973-67.766-4.422 0-8-3.582-8-8s3.578-8 8-8c53.196-.043 102.078 29.278 127.086 76.23a7.993 7.993 0 0 1-.195 7.88 7.996 7.996 0 0 1-6.852 3.89zm-80.04-192c0 22.09-17.91 40-40 40-22.093 0-40-17.91-40-40 0-22.094 17.907-40 40-40 22.09 0 40 17.906 40 40zm0 0" fill="#fdbd40"/><path d="M192.07 48.11a8 8 0 1 1-16-.001 8 8 0 0 1 16 0zm0 0" fill="#fcf05a"/><path d="M184.07 64.11c-8.84 0-16-7.165-16-16s7.16-16 16-16c8.836 0 16 7.163 16 16s-7.164 16-16 16zm0-16" fill="#fcf05a"/><path d="M120.07 168.11l16 32 40 16-24 24 2.606 40-34.606-16-34.61 16 2.61-40-24-24 40-16zm128 128l16 32 40 16-24 24 2.606 40-34.606-16-34.61 16 2.61-40-24-24 40-16zm0 0" fill="#fdbd40"/><path d="M310.086 273.508a129.701 129.701 0 0 1 1.984 22.601 8 8 0 0 0 16 0c0-8.515-.746-17.015-2.234-25.402a7.996 7.996 0 0 0-9.258-6.383 7.994 7.994 0 0 0-6.492 9.184zM176.07 160.11c0 4.417 3.578 8 8 8 47.29-.036 90.743 26.027 112.973 67.765a8 8 0 1 0 14.113-7.535c-25.008-46.953-73.89-76.274-127.086-76.23-4.422 0-8 3.581-8 8zm24-112c0 8.835-7.164 16-16 16-8.84 0-16-7.165-16-16s7.16-16 16-16c8.836 0 16 7.163 16 16zm-21.027 160.566l-37.176-14.863-14.637-29.282a8.345 8.345 0 0 0-7.16-4.066 8.34 8.34 0 0 0-7.16 4.066l-14.64 29.281-37.176 14.864a7.997 7.997 0 0 0-2.68 13.09l21.438 21.437-2.399 36.387a7.998 7.998 0 0 0 11.336 7.781l31.281-14.46 31.254 14.444a7.998 7.998 0 0 0 11.336-7.785l-2.398-36.383 21.437-21.437a7.998 7.998 0 0 0-2.68-13.09zm-32.629 25.777a7.998 7.998 0 0 0-2.328 6.176l1.734 26.566-22.398-10.351a8.014 8.014 0 0 0-6.707 0l-22.399 10.351 1.754-26.566a7.998 7.998 0 0 0-2.328-6.176l-15.426-15.426 28.743-11.488a7.998 7.998 0 0 0 4.187-3.855l8.824-17.688 8.84 17.688a7.99 7.99 0 0 0 4.184 3.855l28.742 11.488zm160.629 102.223l-37.176-14.864-14.637-29.28a8.345 8.345 0 0 0-7.16-4.067 8.34 8.34 0 0 0-7.16 4.066l-14.64 29.281-37.176 14.864a7.997 7.997 0 0 0-2.68 13.09l21.438 21.437-2.399 36.387a7.998 7.998 0 0 0 11.336 7.781l31.281-14.46 31.254 14.444a7.998 7.998 0 0 0 11.336-7.785l-2.398-36.382 21.437-21.438a7.998 7.998 0 0 0-2.68-13.09zm-32.629 25.777a7.998 7.998 0 0 0-2.328 6.176l1.734 26.566-22.398-10.351a8.014 8.014 0 0 0-6.707 0l-22.399 10.351 1.754-26.566a7.998 7.998 0 0 0-2.328-6.176l-15.426-15.426 28.743-11.488a7.998 7.998 0 0 0 4.187-3.855l8.824-17.688 8.797 17.688a8.004 8.004 0 0 0 4.184 3.855l28.746 11.488zm0 0"/><path d="M136.07 88.11v30.398C47 142.578-10.473 228.887 1.668 320.348c12.14 91.46 90.137 159.789 182.402 159.789 92.262 0 170.258-68.328 182.399-159.79 12.14-91.46-45.332-177.769-134.399-201.84V88.11a8 8 0 0 0-8-8h-4.32c17.293-19.218 16.258-48.683-2.34-66.64-18.601-17.957-48.082-17.957-66.683 0-18.598 17.957-19.633 47.422-2.34 66.64h-4.317c-4.422 0-8 3.582-8 8zm216 208c0 92.78-75.218 168-168 168-92.785 0-168-75.22-168-168 0-92.786 75.215-168 168-168 92.739.1 167.899 75.257 168 168zm-168-184c-10.73.011-21.437.96-32 2.84V96.11h64v18.84a183.924 183.924 0 0 0-32-2.84zm-32-64c0-17.676 14.325-32 32-32 17.672 0 32 14.324 32 32 0 17.671-14.328 32-32 32-17.675 0-32-14.329-32-32zm0 0"/></svg>