<svg height="511pt" viewBox="-28 0 511 511.999" width="511pt" xmlns="http://www.w3.org/2000/svg"><path d="M406.605 87.707c-72.488-9.168-120.617-45.434-148.5-74.73-16.468-17.301-44.152-17.301-60.62 0-27.883 29.296-76.012 65.562-148.5 74.73-30.344 3.84-51.77 31.738-48.07 62.098 9.288 76.191 31.831 202.789 75.023 249.98 38.476 42.047 86.878 79.184 118.554 101.617 19.953 14.13 46.656 14.13 66.61 0 31.675-22.433 80.078-59.57 118.554-101.617 43.188-47.191 65.735-173.789 75.024-249.98 3.699-30.36-17.73-58.258-48.075-62.098zm0 0" fill="#377c29"/><path d="M284.16 36.742a249.817 249.817 0 0 1-26.055-23.765c-16.468-17.301-44.152-17.301-60.62 0-27.883 29.296-76.012 65.562-148.5 74.734-30.344 3.836-51.77 31.734-48.07 62.094 9.288 76.191 31.831 202.789 75.022 249.98 24.43 26.695 52.856 51.41 78.465 71.64-24.406-75.831-29.297-152.448-28.265-208.956.84-45.895 25.082-88.106 64.035-112.395 53.394-33.297 82.246-86.746 93.988-113.332zm0 0" fill="#378b29"/><path d="M240.8 448.035a21.489 21.489 0 0 1-26.01 0c-23.497-17.86-72.981-56.562-98.864-84.848-5.926-6.472-21.469-28.316-37.739-91.113-8.644-33.375-15.867-81.543-19.62-109.09-1.583-11.62 6.132-22.53 17.648-24.754 61.695-11.921 107.469-40.074 139.203-67.539 7.086-6.132 17.668-6.132 24.754 0 31.738 27.465 77.512 55.618 139.203 67.54 11.516 2.222 19.234 13.132 17.648 24.753-3.75 27.547-10.972 75.72-19.62 109.09-16.27 62.797-31.81 84.637-37.735 91.113-25.887 28.286-75.371 66.989-98.867 84.848zm0 0" fill="#1a2f4c"/><path d="M227.79 324.758a20.27 20.27 0 0 1-12.825-4.563l-60.555-49.273c-8.707-7.086-10.023-19.89-2.937-28.598 7.086-8.707 19.89-10.023 28.597-2.937l46.39 37.75 67.892-67.258c7.972-7.899 20.843-7.84 28.746.137 7.898 7.976 7.84 20.843-.137 28.746l-80.86 80.11a20.3 20.3 0 0 1-14.312 5.886zm0 0" fill="#e00b58"/><path d="M257.352 84.504a302.59 302.59 0 0 1-17.18-13.813c-7.086-6.132-17.668-6.132-24.754 0-31.734 27.465-77.508 55.618-139.203 67.54-11.516 2.222-19.23 13.132-17.649 24.753 3.754 27.547 10.973 75.72 19.621 109.09 16.27 62.797 31.81 84.637 37.739 91.113 5.078 5.551 11.078 11.516 17.601 17.63-6.507-43.653-8.007-84.594-7.39-118.348.84-45.899 25.078-88.106 64.031-112.395 29.441-18.36 51.418-42.836 67.184-65.57zm0 0" fill="#1b2f3a"/></svg>