<svg height="480pt" viewBox="0 0 480 480" width="480pt" xmlns="http://www.w3.org/2000/svg"><path d="m352 312h-32v-40h32zm0 0" fill="#d3843d"/><path d="m224 168h32v40h-32zm0 0" fill="#d3843d"/><path d="m160 312h-32v-40h32zm0 0" fill="#d3843d"/><path d="m256 168s24-16 24-40-32-72-40-72-40 48-40 72 24 40 24 40zm0 0" fill="#fcf05a"/><path d="m128 312s-24 16-24 40 32 72 40 72 40-48 40-72-24-40-24-40zm0 0" fill="#fcf05a"/><path d="m320 312s-24 16-24 40 32 72 40 72 40-48 40-72-24-40-24-40zm0 0" fill="#fcf05a"/><g fill="#fdbd40"><path d="m8 219.246094c-.054688 5.238281 2.410156 10.179687 6.621094 13.289062 4.214844 3.109375 9.664062 4.003906 14.652344 2.410156 6.046874-2.027343 12.394531-3.023437 18.773437-2.945312 48 0 48 48 96.042969 48 48.039062 0 48-48 96-48s48 48 96 48 48-48 96-48c6.363281-.074219 12.695312.917969 18.734375 2.9375 4.96875 1.574219 10.386719.671875 14.578125-2.425781 4.191406-3.097657 6.644531-8.011719 6.597656-13.222657v-.089843c.011719-7.375-4.894531-13.855469-12-15.847657-9.136719-2.386718-18.558594-3.519531-28-3.367187-37.246094 0-57.328125 20.085937-70.617188 33.375-11.054687 11.128906-15.054687 14.640625-25.3125 14.640625-10.253906 0-14.253906-3.511719-25.375-14.625-13.289062-13.285156-33.367187-33.375-70.632812-33.375-37.261719 0-57.328125 20.089844-70.613281 33.375-11.113281 11.113281-15.113281 14.625-25.359375 14.625-10.25 0-14.28125-3.511719-25.402344-14.632812-13.296875-13.289063-33.382812-33.367188-70.648438-33.367188-9.441406-.148438-18.859374.980469-28 3.359375-7.125 1.992187-12.046874 8.492187-12.039062 15.886719zm0 0"/><path d="m243.871094 144c-3.113282-.003906-5.941406-1.8125-7.25-4.640625-1.304688-2.824219-.855469-6.152344 1.15625-8.527344.816406-.929687 1.527344-1.941406 2.125-3.023437-1.628906-5.832032-3.976563-11.4375-6.988282-16.6875-1.410156-2.539063-1.335937-5.640625.195313-8.105469 1.53125-2.46875 4.277344-3.910156 7.175781-3.773437 2.898438.140624 5.496094 1.835937 6.785156 4.4375 4.359376 7.417968 7.378907 15.539062 8.921876 24-.316407 5.066406-2.449219 9.847656-6.007813 13.464843-1.515625 1.804688-3.753906 2.851563-6.113281 2.855469zm0 0"/><path d="m144 380.601562c-2.972656 0-5.703125-1.648437-7.085938-4.28125-4.359374-7.417968-7.378906-15.539062-8.921874-24 .316406-5.066406 2.449218-9.847656 6.007812-13.464843 1.824219-2.253907 4.726562-3.347657 7.585938-2.851563 2.859374.492188 5.226562 2.496094 6.183593 5.234375.960938 2.738281.363281 5.78125-1.5625 7.953125-.816406.929688-1.527343 1.941406-2.125 3.023438 1.628907 5.832031 3.976563 11.4375 6.988281 16.6875 1.292969 2.476562 1.199219 5.449218-.246093 7.835937-1.445313 2.390625-4.03125 3.855469-6.824219 3.863281zm0 0"/><path d="m336 380.601562c-2.972656 0-5.703125-1.648437-7.085938-4.28125-4.359374-7.417968-7.378906-15.539062-8.921874-24 .316406-5.066406 2.449218-9.847656 6.007812-13.464843 1.824219-2.253907 4.726562-3.347657 7.585938-2.851563 2.859374.492188 5.226562 2.496094 6.183593 5.234375.960938 2.738281.363281 5.78125-1.5625 7.953125-.816406.929688-1.527343 1.941406-2.125 3.023438 1.628907 5.832031 3.976563 11.4375 6.988281 16.6875 1.292969 2.476562 1.199219 5.449218-.246093 7.835937-1.445313 2.390625-4.03125 3.855469-6.824219 3.863281zm0 0"/><path d="m240 32c-4.417969 0-8-3.582031-8-8v-16c0-4.417969 3.582031-8 8-8s8 3.582031 8 8v16c0 4.417969-3.582031 8-8 8zm0 0"/><path d="m192 64c-2.121094 0-4.15625-.84375-5.65625-2.34375l-16-16c-3.03125-3.140625-2.988281-8.128906.097656-11.214844 3.085938-3.085937 8.074219-3.128906 11.214844-.097656l16 16c2.289062 2.289062 2.972656 5.730469 1.734375 8.71875s-4.15625 4.9375-7.390625 4.9375zm0 0"/><path d="m288 64c-3.234375 0-6.152344-1.949219-7.390625-4.9375s-.550781-6.429688 1.734375-8.71875l16-16c2.007812-2.078125 4.984375-2.914062 7.78125-2.179688 2.796875.730469 4.980469 2.914063 5.710938 5.710938.734374 2.796875-.101563 5.773438-2.179688 7.78125l-16 16c-1.5 1.5-3.535156 2.34375-5.65625 2.34375zm0 0"/><path d="m168 120h-16c-4.417969 0-8-3.582031-8-8s3.582031-8 8-8h16c4.417969 0 8 3.582031 8 8s-3.582031 8-8 8zm0 0"/><path d="m328 120h-16c-4.417969 0-8-3.582031-8-8s3.582031-8 8-8h16c4.417969 0 8 3.582031 8 8s-3.582031 8-8 8zm0 0"/><path d="m144 480c-4.417969 0-8-3.582031-8-8v-16c0-4.417969 3.582031-8 8-8s8 3.582031 8 8v16c0 4.417969-3.582031 8-8 8zm0 0"/><path d="m208 440c-2.121094 0-4.15625-.84375-5.65625-2.34375l-16-16c-3.03125-3.140625-2.988281-8.128906.097656-11.214844 3.085938-3.085937 8.074219-3.128906 11.214844-.097656l16 16c2.289062 2.289062 2.972656 5.730469 1.734375 8.71875s-4.15625 4.9375-7.390625 4.9375zm0 0"/><path d="m80 440c-3.234375 0-6.152344-1.949219-7.390625-4.9375s-.550781-6.429688 1.734375-8.71875l16-16c3.140625-3.03125 8.128906-2.988281 11.214844.097656 3.085937 3.085938 3.128906 8.074219.097656 11.214844l-16 16c-1.5 1.5-3.535156 2.34375-5.65625 2.34375zm0 0"/><path d="m72 368h-16c-4.417969 0-8-3.582031-8-8s3.582031-8 8-8h16c4.417969 0 8 3.582031 8 8s-3.582031 8-8 8zm0 0"/><path d="m336 480c-4.417969 0-8-3.582031-8-8v-16c0-4.417969 3.582031-8 8-8s8 3.582031 8 8v16c0 4.417969-3.582031 8-8 8zm0 0"/><path d="m400 440c-2.121094 0-4.15625-.84375-5.65625-2.34375l-16-16c-3.03125-3.140625-2.988281-8.128906.097656-11.214844 3.085938-3.085937 8.074219-3.128906 11.214844-.097656l16 16c2.289062 2.289062 2.972656 5.730469 1.734375 8.71875s-4.15625 4.9375-7.390625 4.9375zm0 0"/><path d="m272 440c-3.234375 0-6.152344-1.949219-7.390625-4.9375s-.550781-6.429688 1.734375-8.71875l16-16c3.140625-3.03125 8.128906-2.988281 11.214844.097656 3.085937 3.085938 3.128906 8.074219.097656 11.214844l-16 16c-1.5 1.5-3.535156 2.34375-5.65625 2.34375zm0 0"/><path d="m424 368h-16c-4.417969 0-8-3.582031-8-8s3.582031-8 8-8h16c4.417969 0 8 3.582031 8 8s-3.582031 8-8 8zm0 0"/></g><path d="m462.175781 195.671875c-9.828125-2.597656-19.964843-3.835937-30.128906-3.671875-40.558594 0-62.910156 22.398438-76.269531 35.71875-11.128906 11.128906-12.976563 12.28125-19.707032 12.28125-6.726562 0-8.574218-1.152344-19.726562-12.289062-13.957031-15.710938-32.121094-27.097657-52.34375-32.816407v-22.894531c7.457031-6.015625 24-21.832031 24-44 0-27.503906-34.046875-80-48-80s-48 52.496094-48 80c0 22.144531 16.542969 37.960938 24 44v22.953125c-20.171875 5.738281-38.285156 17.117187-52.207031 32.800781-11.128907 11.09375-12.976563 12.246094-19.703125 12.246094-6.730469 0-8.714844-1.265625-19.746094-12.289062-13.359375-13.359376-35.71875-35.710938-76.304688-35.710938-10.171874-.164062-20.320312 1.0625-30.160156 3.65625-9.097656 2.570312-15.910156 10.136719-17.519531 19.453125s2.269531 18.726563 9.976563 24.203125c6.222656 4.527344 14.265624 5.722656 21.535156 3.199219 5.214844-1.730469 10.675781-2.582031 16.167968-2.511719 20.703126 0 30.746094 10.039062 42.402344 21.65625 8.222656 9.261719 18.292969 16.707031 29.558594 21.855469v24.488281c-7.457031 6.015625-24 21.832031-24 44 0 27.503906 34.046875 80 48 80s48-52.496094 48-80c0-22.144531-16.542969-37.960938-24-44v-24.433594c11.34375-5.132812 21.472656-12.597656 29.734375-21.910156 11.617187-11.617188 21.648437-21.65625 42.328125-21.65625s30.730469 10.039062 42.355469 21.65625c8.226562 9.269531 18.304687 16.714844 29.582031 21.855469v24.488281c-7.457031 6.015625-24 21.832031-24 44 0 27.503906 34.046875 80 48 80s48-52.496094 48-80c0-22.144531-16.542969-37.960938-24-44v-24.441406c11.335938-5.128906 21.464844-12.59375 29.71875-21.902344 11.617188-11.617188 21.648438-21.65625 42.328125-21.65625 5.480469-.074219 10.933594.769531 16.136719 2.496094 7.253906 2.523437 15.285156 1.328125 21.488281-3.199219 7.691406-5.476563 11.566406-14.871094 9.96875-24.175781-1.597656-9.304688-8.386719-16.871094-17.464844-19.464844zm-254.175781-67.671875c0-18.183594 22.894531-54.359375 32-62.855469 9.105469 8.496094 32 44.671875 32 62.855469 0 15.847656-13.601562 28.054688-18.640625 32h-26.71875c-5.039063-3.945312-18.640625-16.152344-18.640625-32zm24 48h16v16.3125c-2.566406-.191406-5.199219-.3125-7.9375-.3125-2.734375 0-5.453125.128906-8.0625.328125zm-56 176c0 18.183594-22.894531 54.398438-32 62.855469-9.105469-8.457031-32-44.671875-32-62.855469 0-15.847656 13.601562-28.054688 18.640625-32h26.71875c5.039063 3.945312 18.640625 16.152344 18.640625 32zm-24-48h-16v-16.527344c2.683594.332032 5.382812.507813 8.089844.527344 2.644531-.023438 5.285156-.195312 7.910156-.511719zm216 48c0 18.183594-22.894531 54.398438-32 62.855469-9.105469-8.457031-32-44.671875-32-62.855469 0-15.847656 13.601562-28.054688 18.640625-32h26.71875c5.039063 3.945312 18.640625 16.152344 18.640625 32zm-24-48h-16v-16.519531c5.3125.6875 10.6875.6875 16 0zm116.375-77.710938c-2.007812 1.484376-4.617188 1.890626-6.984375 1.085938-6.871094-2.316406-14.089844-3.457031-21.34375-3.375-27.304687 0-41.292969 13.992188-53.597656 26.34375-11.65625 11.617188-21.695313 21.65625-42.378907 21.65625-20.679687 0-30.726562-10.039062-42.34375-21.65625-12.351562-12.351562-26.34375-26.34375-53.664062-26.34375s-41.292969 13.992188-53.636719 26.34375c-11.617187 11.617188-21.625 21.65625-42.335937 21.65625-20.714844 0-30.746094-10.039062-42.402344-21.65625-12.320312-12.351562-26.320312-26.34375-53.648438-26.34375-7.261718-.074219-14.484374 1.066406-21.367187 3.375-2.378906.820312-5.011719.414062-7.03125-1.085938-2.277344-1.621093-3.632813-4.246093-3.640625-7.042968-.003906-3.800782 2.519531-7.140625 6.175781-8.183594 8.445313-2.171875 17.144531-3.203125 25.863281-3.0625 33.960938 0 51.898438 17.929688 64.992188 31.023438 11.769531 11.777343 17.554688 16.976562 31.058594 16.976562s19.246094-5.199219 31.015625-16.96875c13.09375-13.09375 31.023437-31.03125 64.957031-31.03125 33.9375 0 51.882812 17.929688 64.976562 31.03125 11.761719 11.769531 17.546876 16.96875 31.03125 16.96875 13.488282 0 19.257813-5.199219 31.019532-16.96875 13.09375-13.09375 31.023437-31.03125 64.957031-31.03125 8.707031-.140625 17.390625.898438 25.816406 3.078125 3.652344 1.050781 6.164063 4.402344 6.136719 8.203125-.007812 2.78125-1.355469 5.394531-3.625 7.007812zm0 0"/><path d="m239.902344 127.808594c-.597656 1.082031-1.308594 2.09375-2.125 3.023437-1.925782 2.171875-2.523438 5.214844-1.5625 7.953125.957031 2.738282 3.324218 4.742188 6.183594 5.234375 2.859374.496094 5.761718-.59375 7.585937-2.851562 3.5625-3.617188 5.699219-8.398438 6.015625-13.464844-1.542969-8.460937-4.5625-16.582031-8.917969-24-1.292969-2.601563-3.886719-4.296875-6.789062-4.4375-2.898438-.136719-5.644531 1.304687-7.175781 3.773437-1.53125 2.464844-1.605469 5.566407-.195313 8.105469 3.007813 5.242188 5.351563 10.839844 6.980469 16.664063zm0 0"/><path d="m144.097656 352.191406c.597656-1.082031 1.3125-2.09375 2.125-3.023437 1.925782-2.171875 2.523438-5.214844 1.566406-7.953125-.960937-2.738282-3.328124-4.742188-6.1875-5.234375-2.859374-.496094-5.761718.59375-7.585937 2.851562-3.5625 3.617188-5.699219 8.398438-6.015625 13.464844 1.542969 8.460937 4.5625 16.582031 8.921875 24 1.382813 2.632813 4.113281 4.28125 7.085937 4.277344 2.800782 0 5.394532-1.46875 6.839844-3.863281 1.445313-2.398438 1.535156-5.375.234375-7.855469-3.011719-5.242188-5.355469-10.839844-6.984375-16.664063zm0 0"/><path d="m336.097656 352.191406c.597656-1.082031 1.3125-2.09375 2.125-3.023437 1.925782-2.171875 2.523438-5.214844 1.566406-7.953125-.960937-2.738282-3.328124-4.742188-6.1875-5.234375-2.859374-.496094-5.761718.59375-7.585937 2.851562-3.5625 3.617188-5.699219 8.398438-6.015625 13.464844 1.542969 8.460937 4.5625 16.582031 8.921875 24 1.382813 2.632813 4.113281 4.28125 7.085937 4.277344 2.800782 0 5.394532-1.46875 6.839844-3.863281 1.445313-2.398438 1.535156-5.375.234375-7.855469-3.011719-5.242188-5.355469-10.839844-6.984375-16.664063zm0 0"/><path d="m248 24v-16c0-4.417969-3.582031-8-8-8s-8 3.582031-8 8v16c0 4.417969 3.582031 8 8 8s8-3.582031 8-8zm0 0"/><path d="m192 64c3.234375 0 6.152344-1.949219 7.390625-4.9375s.554687-6.429688-1.734375-8.71875l-16-16c-3.140625-3.03125-8.128906-2.988281-11.214844.097656-3.085937 3.085938-3.128906 8.074219-.097656 11.214844l16 16c1.5 1.5 3.535156 2.34375 5.65625 2.34375zm0 0"/><path d="m309.65625 34.34375c-3.125-3.121094-8.1875-3.121094-11.3125 0l-16 16c-2.078125 2.007812-2.914062 4.984375-2.179688 7.78125.730469 2.796875 2.914063 4.980469 5.710938 5.710938 2.796875.734374 5.773438-.101563 7.78125-2.179688l16-16c3.121094-3.125 3.121094-8.1875 0-11.3125zm0 0"/><path d="m152 104c-4.417969 0-8 3.582031-8 8s3.582031 8 8 8h16c4.417969 0 8-3.582031 8-8s-3.582031-8-8-8zm0 0"/><path d="m312 120h16c4.417969 0 8-3.582031 8-8s-3.582031-8-8-8h-16c-4.417969 0-8 3.582031-8 8s3.582031 8 8 8zm0 0"/><path d="m144 448c-4.417969 0-8 3.582031-8 8v16c0 4.417969 3.582031 8 8 8s8-3.582031 8-8v-16c0-4.417969-3.582031-8-8-8zm0 0"/><path d="m197.65625 410.34375c-3.140625-3.03125-8.128906-2.988281-11.214844.097656-3.085937 3.085938-3.128906 8.074219-.097656 11.214844l16 16c3.140625 3.03125 8.128906 2.988281 11.214844-.097656 3.085937-3.085938 3.128906-8.074219.097656-11.214844zm0 0"/><path d="m90.34375 410.34375-16 16c-2.078125 2.007812-2.914062 4.984375-2.179688 7.78125.730469 2.796875 2.914063 4.980469 5.710938 5.710938 2.796875.734374 5.773438-.101563 7.78125-2.179688l16-16c3.03125-3.140625 2.988281-8.128906-.097656-11.214844-3.085938-3.085937-8.074219-3.128906-11.214844-.097656zm0 0"/><path d="m80 360c0-4.417969-3.582031-8-8-8h-16c-4.417969 0-8 3.582031-8 8s3.582031 8 8 8h16c4.417969 0 8-3.582031 8-8zm0 0"/><path d="m336 448c-4.417969 0-8 3.582031-8 8v16c0 4.417969 3.582031 8 8 8s8-3.582031 8-8v-16c0-4.417969-3.582031-8-8-8zm0 0"/><path d="m389.65625 410.34375c-3.140625-3.03125-8.128906-2.988281-11.214844.097656-3.085937 3.085938-3.128906 8.074219-.097656 11.214844l16 16c3.140625 3.03125 8.128906 2.988281 11.214844-.097656 3.085937-3.085938 3.128906-8.074219.097656-11.214844zm0 0"/><path d="m282.34375 410.34375-16 16c-2.078125 2.007812-2.914062 4.984375-2.179688 7.78125.730469 2.796875 2.914063 4.980469 5.710938 5.710938 2.796875.734374 5.773438-.101563 7.78125-2.179688l16-16c3.03125-3.140625 2.988281-8.128906-.097656-11.214844-3.085938-3.085937-8.074219-3.128906-11.214844-.097656zm0 0"/><path d="m424 352h-16c-4.417969 0-8 3.582031-8 8s3.582031 8 8 8h16c4.417969 0 8-3.582031 8-8s-3.582031-8-8-8zm0 0"/></svg>