<svg height="512pt" viewBox="0 0 512 512" width="512pt" xmlns="http://www.w3.org/2000/svg"><path d="M75.79 331H75c-41.352 0-75-33.648-75-75 0-8.29 6.71-15 15-15s15 6.71 15 15c0 24.813 20.188 45 45 45 8.29 0 15.395 6.71 15.395 15s-6.313 15-14.606 15zm0 0" fill="#e63950"/><path d="M467 271h-7.898a159.578 159.578 0 0 0-22.2-47.402l40.496-47.996c5.102-6 4.801-14.704-.898-20.102-22.5-22.5-56.7-28.2-85.2-14.102l-11.1 5.704c-8.4-4.204-16.802-8.102-25.5-11.102-1.5-.602-3.302-1.2-5.098-1.2H192.398c-1.796 0-3.597.598-5.097 1.2C110.5 164.5 61 229.3 61 301c0 53.7 27.3 104.5 75 138.7V467c0 24.898 20.098 45 45.902 45 21.598 0 39.297-15.3 43.196-35.7 13.5 3.9 29.703 5.7 45.902 5.7s32.402-1.8 45.902-5.7c1.5 8.7 5.696 16.5 11.996 22.802C337 507.199 348.402 512 361 512c24.902 0 45-20.102 45-45v-22.8c17.402-14.4 31.8-33.098 42-53.2h19c24.902 0 45-20.102 45-45v-30c0-24.902-20.098-45-45-45zm0 0" fill="#ec5569"/><path d="M512 316v30c0 24.898-20.098 45-45 45h-19c-10.2 20.098-24.598 38.8-42 53.2V467c0 24.898-20.098 45-45 45-12.598 0-24-4.8-32.102-12.898-6.3-6.301-10.496-14.102-11.996-22.801C303.402 480.199 287.2 482 271 482V134.8h78.602c1.796 0 3.597.598 5.097 1.2 8.7 3 17.102 6.898 25.5 11.102l11.102-5.704C419.8 127.301 454 133 476.5 155.5c5.7 5.398 6 14.102.898 20.102l-40.496 47.996a159.55 159.55 0 0 1 22.2 47.402H467c24.902 0 45 20.098 45 45zm0 0" fill="#e63950"/><path d="M361.148 301.293c-8.293 0-15.148-6.855-15.148-15.145 0-8.293 6.855-15.148 15.148-15.148 8.29 0 15.145 6.855 15.145 15.145 0 8.293-6.856 15.148-15.145 15.148zm0 0" fill="#465a61"/><path d="M376 105c0 36.898-19.2 69.3-48.3 88.2H214.3C185.2 174.3 166 141.897 166 105 166 47.102 213.102 0 271 0s105 47.102 105 105zm0 0" fill="#fdbf00"/><path d="M376 105c0 36.898-19.2 69.3-48.3 88.2H271V0c57.898 0 105 47.102 105 105zm0 0" fill="#ff9f00"/><path d="M346 105c0 41.398-33.602 75-75 75s-75-33.602-75-75 33.602-75 75-75 75 33.602 75 75zm0 0" fill="#ffd400"/><path d="M271 60c-24.902 0-45 20.098-45 45 0 24.898 20.098 45 45 45s45-20.102 45-45c0-24.902-20.098-45-45-45zm0 0" fill="#ff9f00"/><path d="M361 196c0 8.398-6.598 15-15 15H196c-8.402 0-15-6.602-15-15 0-8.402 6.598-15 15-15h150c8.402 0 15 6.598 15 15zm0 0" fill="#596c76"/><path d="M346 105c0 41.398-33.602 75-75 75V30c41.398 0 75 33.602 75 75zm0 0" fill="#fdbf00"/><path d="M316 105c0 24.898-20.098 45-45 45V60c24.902 0 45 20.098 45 45zm0 0" fill="#ff7816"/><path d="M361 196c0 8.398-6.598 15-15 15h-75v-30h75c8.402 0 15 6.598 15 15zm0 0" fill="#465a61"/></svg>