<?xml version="1.0" encoding="iso-8859-1"?>
<!-- Generator: Adobe Illustrator 19.0.0, SVG Export Plug-In . SVG Version: 6.00 Build 0)  -->
<svg version="1.1" id="Capa_1" xmlns="http://www.w3.org/2000/svg" xmlns:xlink="http://www.w3.org/1999/xlink" x="0px" y="0px"
	 viewBox="0 0 480 480" style="enable-background:new 0 0 480 480;" xml:space="preserve">
<g>
	<path style="fill:#12905A;" d="M327.997,184l19.776,42.136l44.224,6.752l-32,32.8L367.549,312l-39.552-21.864L288.445,312
		l7.552-46.312l-32-32.8l44.224-6.752L327.997,184z"/>
	<path style="fill:#12905A;" d="M239.997,344l19.776,42.136l44.224,6.752l-32,32.8L279.549,472l-39.552-21.864L200.445,472
		l7.552-46.312l-32-32.8l44.224-6.752L239.997,344z"/>
	<path style="fill:#12905A;" d="M71.997,344l19.776,42.136l44.224,6.752l-32,32.8L111.549,472l-39.552-21.864L32.445,472
		l7.552-46.312l-32-32.8l44.224-6.752L71.997,344z"/>
	<path style="fill:#12905A;" d="M407.997,344l19.776,42.136l44.224,6.752l-32,32.8L447.549,472l-39.552-21.864L368.445,472
		l7.552-46.312l-32-32.8l44.224-6.752L407.997,344z"/>
	<path style="fill:#12905A;" d="M151.997,184l19.776,42.136l44.224,6.752l-32,32.8L191.549,312l-39.552-21.864L112.445,312
		l7.552-46.312l-32-32.8l44.224-6.752L151.997,184z"/>
</g>
<path style="fill:#195C85;" d="M175.997,48h64v104h-64V48z"/>
<path style="fill:#FFD782;" d="M287.997,48v-8c0-17.673-14.327-32-32-32v40h-16v104h64l16-24V48H287.997z"/>
<path style="fill:#F4F4E6;" d="M207.997,136c-4.418,0-8-3.582-8-8v-16c0-4.418,3.582-8,8-8s8,3.582,8,8v16
	C215.997,132.418,212.415,136,207.997,136z"/>
<path d="M399.581,230.352c-0.956-2.849-3.428-4.923-6.4-5.368l-40-6.12l-17.96-38.264c-1.88-3.999-6.645-5.716-10.643-3.837
	c-1.687,0.793-3.044,2.15-3.837,3.837l-17.944,38.264l-40,6.12c-4.368,0.666-7.369,4.746-6.703,9.114
	c0.252,1.653,1.015,3.185,2.183,4.382l29.184,29.904l-6.912,42.328c-0.711,4.361,2.247,8.472,6.608,9.183
	c1.772,0.289,3.589-0.026,5.16-0.895l35.68-19.728L363.685,319c1.181,0.658,2.512,1.003,3.864,1
	c4.418,0.005,8.004-3.573,8.008-7.992c0-0.434-0.034-0.868-0.104-1.296l-6.912-42.328l29.184-29.904
	C399.818,236.333,400.534,233.195,399.581,230.352z M354.269,260.104c-1.772,1.817-2.576,4.367-2.168,6.872l4.904,30.056
	l-25.144-13.896c-2.405-1.327-5.323-1.327-7.728,0l-25.144,13.896l4.904-30.056c0.408-2.505-0.396-5.055-2.168-6.872l-21.128-21.656
	l28.8-4.408c2.637-0.404,4.9-2.096,6.032-4.512l12.568-26.696l12.528,26.696c1.132,2.416,3.395,4.108,6.032,4.512l28.8,4.408
	L354.269,260.104z"/>
<path d="M311.581,390.352c-0.956-2.849-3.428-4.923-6.4-5.368l-40-6.12l-17.96-38.264c-1.88-3.999-6.645-5.716-10.643-3.837
	c-1.687,0.793-3.044,2.15-3.837,3.837l-17.944,38.264l-40,6.12c-4.368,0.666-7.369,4.746-6.703,9.114
	c0.252,1.653,1.015,3.185,2.183,4.382l29.184,29.904l-6.912,42.328c-0.711,4.361,2.247,8.472,6.608,9.183
	c1.772,0.289,3.589-0.026,5.16-0.895l35.68-19.728L275.685,479c1.181,0.658,2.512,1.003,3.864,1
	c4.418,0.005,8.004-3.573,8.008-7.992c0-0.434-0.034-0.868-0.104-1.296l-6.912-42.328l29.184-29.904
	C311.818,396.333,312.534,393.195,311.581,390.352z M266.269,420.104c-1.772,1.817-2.576,4.367-2.168,6.872l4.904,30.056
	l-25.144-13.896c-2.405-1.327-5.323-1.327-7.728,0l-25.144,13.896l4.904-30.056c0.408-2.505-0.396-5.055-2.168-6.872l-21.128-21.656
	l28.84-4.408c2.637-0.404,4.9-2.096,6.032-4.512l12.528-26.696l12.528,26.696c1.132,2.416,3.395,4.108,6.032,4.512l28.8,4.408
	L266.269,420.104z"/>
<path d="M24.541,470.712c-0.711,4.361,2.247,8.472,6.608,9.183c1.772,0.289,3.589-0.026,5.16-0.895l35.688-19.728L107.685,479
	c1.181,0.658,2.512,1.003,3.864,1c4.418,0.005,8.004-3.573,8.008-7.992c0-0.434-0.034-0.868-0.104-1.296l-6.912-42.328
	l29.184-29.904c3.086-3.162,3.024-8.227-0.138-11.313c-1.197-1.168-2.729-1.931-4.382-2.183l-40-6.12L79.245,340.6
	c-1.88-3.999-6.645-5.716-10.643-3.837c-1.687,0.793-3.044,2.15-3.837,3.837l-17.968,38.264l-40,6.12
	c-4.368,0.666-7.369,4.746-6.703,9.114c0.252,1.653,1.015,3.185,2.183,4.382l29.184,29.904L24.541,470.712z M24.597,398.448
	l28.8-4.408c2.637-0.404,4.9-2.096,6.032-4.512l12.568-26.696l12.528,26.696c1.132,2.416,3.395,4.108,6.032,4.512l28.84,4.408
	l-21.128,21.656c-1.772,1.817-2.576,4.367-2.168,6.872l4.904,30.056l-25.144-13.896c-2.405-1.327-5.323-1.327-7.728,0
	l-25.144,13.896l4.904-30.056c0.408-2.505-0.396-5.055-2.168-6.872L24.597,398.448z"/>
<path d="M473.205,384.984l-40-6.12l-17.96-38.264c-1.88-3.999-6.645-5.716-10.643-3.837c-1.687,0.793-3.044,2.15-3.837,3.837
	l-17.968,38.264l-40,6.12c-4.368,0.666-7.369,4.746-6.703,9.114c0.252,1.653,1.015,3.185,2.183,4.382l29.184,29.904l-6.912,42.328
	c-0.711,4.361,2.247,8.472,6.608,9.183c1.772,0.289,3.589-0.026,5.16-0.895l35.68-19.728L443.685,479
	c1.181,0.658,2.512,1.003,3.864,1c4.418,0.005,8.004-3.573,8.008-7.992c0-0.434-0.034-0.868-0.104-1.296l-6.912-42.328
	l29.184-29.904c3.086-3.162,3.024-8.227-0.138-11.313C476.39,385.999,474.857,385.236,473.205,384.984L473.205,384.984z
	 M434.269,420.104c-1.772,1.817-2.576,4.367-2.168,6.872l4.904,30.056l-25.144-13.896c-2.405-1.327-5.323-1.327-7.728,0
	l-25.144,13.896l4.904-30.056c0.408-2.505-0.396-5.055-2.168-6.872l-21.128-21.656l28.8-4.408c2.637-0.404,4.9-2.096,6.032-4.512
	l12.568-26.696l12.528,26.696c1.132,2.416,3.395,4.108,6.032,4.512l28.8,4.408L434.269,420.104z"/>
<path d="M151.997,176c-3.101,0.001-5.922,1.793-7.24,4.6l-17.96,38.264l-40,6.12c-4.368,0.666-7.369,4.746-6.703,9.114
	c0.252,1.653,1.015,3.185,2.183,4.382l29.184,29.904l-6.912,42.328c-0.711,4.361,2.247,8.472,6.608,9.183
	c1.772,0.289,3.589-0.026,5.16-0.895l35.68-19.728L187.685,319c1.181,0.658,2.512,1.003,3.864,1
	c4.418,0.005,8.004-3.573,8.008-7.992c0-0.434-0.034-0.868-0.104-1.296l-6.912-42.328l29.184-29.904
	c3.086-3.162,3.024-8.227-0.138-11.313c-1.197-1.168-2.729-1.931-4.382-2.183l-40-6.12l-17.96-38.264
	C157.925,177.79,155.1,175.997,151.997,176L151.997,176z M170.557,234.04l28.84,4.408l-21.128,21.656
	c-1.772,1.817-2.576,4.367-2.168,6.872l4.904,30.056l-25.144-13.896c-2.405-1.327-5.323-1.327-7.728,0l-25.144,13.896l4.904-30.056
	c0.408-2.505-0.396-5.055-2.168-6.872l-21.128-21.656l28.84-4.408c2.637-0.404,4.9-2.096,6.032-4.512l12.528-26.696l12.528,26.696
	C165.657,231.944,167.919,233.636,170.557,234.04L170.557,234.04z"/>
<path d="M319.997,40h-24c-0.026-22.08-17.92-39.974-40-40c-4.418,0-8,3.582-8,8v32h-72c-4.418,0-8,3.582-8,8v104
	c0,4.418,3.582,8,8,8h128c2.674,0,5.172-1.335,6.656-3.56l16-24c0.874-1.316,1.341-2.86,1.344-4.44V48
	C327.997,43.582,324.415,40,319.997,40z M183.997,56h48v88h-48V56z M311.997,125.6l-12.28,18.4h-51.72V56h8c4.418,0,8-3.582,8-8
	V17.368c9.582,3.403,15.988,12.464,16,22.632v8c0,4.418,3.582,8,8,8h24V125.6z"/>
<path d="M207.997,104c-4.418,0-8,3.582-8,8v16c0,4.418,3.582,8,8,8s8-3.582,8-8v-16C215.997,107.582,212.415,104,207.997,104z"/>
<g>
</g>
<g>
</g>
<g>
</g>
<g>
</g>
<g>
</g>
<g>
</g>
<g>
</g>
<g>
</g>
<g>
</g>
<g>
</g>
<g>
</g>
<g>
</g>
<g>
</g>
<g>
</g>
<g>
</g>
</svg>
