<svg xmlns="http://www.w3.org/2000/svg" viewBox="0 0 480 480"><path d="M327.997 184l19.776 42.136 44.224 6.752-32 32.8L367.549 312l-39.552-21.864L288.445 312l7.552-46.312-32-32.8 44.224-6.752L327.997 184zm-88 160l19.776 42.136 44.224 6.752-32 32.8L279.549 472l-39.552-21.864L200.445 472l7.552-46.312-32-32.8 44.224-6.752L239.997 344zm-168 0l19.776 42.136 44.224 6.752-32 32.8L111.549 472l-39.552-21.864L32.445 472l7.552-46.312-32-32.8 44.224-6.752L71.997 344zm336 0l19.776 42.136 44.224 6.752-32 32.8L447.549 472l-39.552-21.864L368.445 472l7.552-46.312-32-32.8 44.224-6.752L407.997 344zm-256-160l19.776 42.136 44.224 6.752-32 32.8L191.549 312l-39.552-21.864L112.445 312l7.552-46.312-32-32.8 44.224-6.752L151.997 184z" fill="#12905a"/><path d="M175.997 48h64v104h-64V48z" fill="#195c85"/><path d="M287.997 48v-8c0-17.673-14.327-32-32-32v40h-16v104h64l16-24V48h-32z" fill="#ffd782"/><path d="M207.997 136a8 8 0 0 1-8-8v-16a8 8 0 0 1 16 0v16a8 8 0 0 1-8 8z" fill="#f4f4e6"/><path d="M399.581 230.352a8.001 8.001 0 0 0-6.4-5.368l-40-6.12-17.96-38.264a8 8 0 0 0-14.48 0l-17.944 38.264-40 6.12a8 8 0 0 0-4.52 13.496l29.184 29.904-6.912 42.328A8 8 0 0 0 292.317 319l35.68-19.728L363.685 319a7.906 7.906 0 0 0 3.864 1 8 8 0 0 0 7.904-9.288l-6.912-42.328 29.184-29.904a8.001 8.001 0 0 0 1.856-8.128zm-45.312 29.752a8 8 0 0 0-2.168 6.872l4.904 30.056-25.144-13.896a7.999 7.999 0 0 0-7.728 0l-25.144 13.896 4.904-30.056a8 8 0 0 0-2.168-6.872l-21.128-21.656 28.8-4.408a7.999 7.999 0 0 0 6.032-4.512l12.568-26.696 12.528 26.696a7.999 7.999 0 0 0 6.032 4.512l28.8 4.408-21.088 21.656zm-42.688 130.248a8.001 8.001 0 0 0-6.4-5.368l-40-6.12-17.96-38.264a8 8 0 0 0-14.48 0l-17.944 38.264-40 6.12a8 8 0 0 0-4.52 13.496l29.184 29.904-6.912 42.328A8 8 0 0 0 204.317 479l35.68-19.728L275.685 479a7.906 7.906 0 0 0 3.864 1 8 8 0 0 0 7.904-9.288l-6.912-42.328 29.184-29.904a8.001 8.001 0 0 0 1.856-8.128zm-45.312 29.752a8 8 0 0 0-2.168 6.872l4.904 30.056-25.144-13.896a7.999 7.999 0 0 0-7.728 0l-25.144 13.896 4.904-30.056a8 8 0 0 0-2.168-6.872l-21.128-21.656 28.84-4.408a7.999 7.999 0 0 0 6.032-4.512l12.528-26.696 12.528 26.696a7.999 7.999 0 0 0 6.032 4.512l28.8 4.408-21.088 21.656zM24.541 470.712A8 8 0 0 0 36.309 479l35.688-19.728L107.685 479a7.906 7.906 0 0 0 3.864 1 8 8 0 0 0 7.904-9.288l-6.912-42.328 29.184-29.904a8 8 0 0 0-4.52-13.496l-40-6.12-17.96-38.264a8 8 0 0 0-14.48 0l-17.968 38.264-40 6.12a8 8 0 0 0-4.52 13.496l29.184 29.904-6.92 42.328zm.056-72.264l28.8-4.408a7.999 7.999 0 0 0 6.032-4.512l12.568-26.696 12.528 26.696a7.999 7.999 0 0 0 6.032 4.512l28.84 4.408-21.128 21.656a8 8 0 0 0-2.168 6.872l4.904 30.056-25.144-13.896a7.999 7.999 0 0 0-7.728 0l-25.144 13.896 4.904-30.056a8 8 0 0 0-2.168-6.872l-21.128-21.656zm448.608-13.464l-40-6.12-17.96-38.264a8 8 0 0 0-14.48 0l-17.968 38.264-40 6.12a8 8 0 0 0-4.52 13.496l29.184 29.904-6.912 42.328A8 8 0 0 0 372.317 479l35.68-19.728L443.685 479a7.906 7.906 0 0 0 3.864 1 8 8 0 0 0 7.904-9.288l-6.912-42.328 29.184-29.904a8 8 0 0 0-4.52-13.496zm-38.936 35.12a8 8 0 0 0-2.168 6.872l4.904 30.056-25.144-13.896a7.999 7.999 0 0 0-7.728 0l-25.144 13.896 4.904-30.056a8 8 0 0 0-2.168-6.872l-21.128-21.656 28.8-4.408a7.999 7.999 0 0 0 6.032-4.512l12.568-26.696 12.528 26.696a7.999 7.999 0 0 0 6.032 4.512l28.8 4.408-21.088 21.656zM151.997 176a8 8 0 0 0-7.24 4.6l-17.96 38.264-40 6.12a8 8 0 0 0-4.52 13.496l29.184 29.904-6.912 42.328A8 8 0 0 0 116.317 319l35.68-19.728L187.685 319a7.906 7.906 0 0 0 3.864 1 8 8 0 0 0 7.904-9.288l-6.912-42.328 29.184-29.904a8 8 0 0 0-4.52-13.496l-40-6.12-17.96-38.264a8 8 0 0 0-7.248-4.6zm18.56 58.04l28.84 4.408-21.128 21.656a8 8 0 0 0-2.168 6.872l4.904 30.056-25.144-13.896a7.999 7.999 0 0 0-7.728 0l-25.144 13.896 4.904-30.056a8 8 0 0 0-2.168-6.872l-21.128-21.656 28.84-4.408a7.999 7.999 0 0 0 6.032-4.512l12.528-26.696 12.528 26.696a7.997 7.997 0 0 0 6.032 4.512zM319.997 40h-24c-.026-22.08-17.92-39.974-40-40a8 8 0 0 0-8 8v32h-72a8 8 0 0 0-8 8v104a8 8 0 0 0 8 8h128a8 8 0 0 0 6.656-3.56l16-24a8.052 8.052 0 0 0 1.344-4.44V48a8 8 0 0 0-8-8zm-136 16h48v88h-48V56zm128 69.6l-12.28 18.4h-51.72V56h8a8 8 0 0 0 8-8V17.368a24.047 24.047 0 0 1 16 22.632v8a8 8 0 0 0 8 8h24v69.6z"/><path d="M207.997 104a8 8 0 0 0-8 8v16a8 8 0 0 0 16 0v-16a8 8 0 0 0-8-8z"/></svg>