<svg height="511pt" viewBox="-14 1 511 511.99896" width="511pt" xmlns="http://www.w3.org/2000/svg"><path d="m244.285156 114.109375-43.289062 22.078125-52.179688-22.078125c-16.355468-49.082031-31.339844-88.480469-9.691406-101.296875 21.636719-12.8125 30.785156 28.199219 30.785156 28.199219s-.105468-5.378907 1.054688-12.230469c2.058594-12.082031 8.0625-28.78125 25.585937-28.78125 27.464844 0 26.628907 41.011719 26.628907 41.011719s9.160156-41.011719 30.796874-28.199219c21.640626 12.816406 6.664063 52.214844-9.691406 101.296875zm0 0" fill="#ef5361"/><path d="m392.597656 406.816406c0-108.277344-87.773437-242.226562-196.050781-242.226562-108.273437 0-196.046875 133.949218-196.046875 242.226562 0 108.273438 87.773438 104.65625 196.046875 104.65625 108.277344 0 196.050781 3.617188 196.050781-104.65625zm0 0" fill="#ef5361"/><path d="m184.761719 511.480469c-102.78125.105469-184.257813-.34375-184.257813-104.660157 0-108.273437 87.773438-242.226562 196.046875-242.226562-53.332031 0-96.554687 133.953125-96.554687 242.226562 0 100.167969 37 104.566407 84.765625 104.660157zm0 0" fill="#dc4250"/><path d="m182.097656 114.109375h-33.28125c-16.355468-49.082031-31.339844-88.480469-9.691406-101.296875 21.636719-12.8125 30.785156 28.199219 30.785156 28.199219s3.039063 39.972656 12.1875 73.097656zm0 0" fill="#dc4250"/><path d="m259.542969 135.132812v21.898438c0 11.613281-9.410157 21.035156-21.019531 21.035156h-83.941407c-11.613281 0-21.035156-9.421875-21.035156-21.035156v-21.898438c0-11.613281 9.421875-21.023437 21.035156-21.023437h83.941407c11.609374 0 21.019531 9.410156 21.019531 21.023437zm0 0" fill="#4588b5"/><path d="m259.542969 135.132812v21.898438c0 11.613281-9.410157 21.035156-21.019531 21.035156h-42.003907c-11.613281 0-21.023437-9.421875-21.023437-21.035156v-21.898438c0-11.613281 9.410156-21.023437 21.023437-21.023437h42.003907c11.609374 0 21.019531 9.410156 21.019531 21.023437zm0 0" fill="#6b9dc6"/><path d="m415.070312 205.949219c-27.898437 0-50.511718 22.613281-50.511718 50.511719v50.515624h50.511718c27.898438 0 50.511719-22.617187 50.511719-50.515624 0-27.898438-22.613281-50.511719-50.511719-50.511719zm0 0" fill="#ffe66b"/><path d="m314.042969 205.949219c27.898437 0 50.515625 22.613281 50.515625 50.511719v50.515624h-50.515625c-27.894531 0-50.511719-22.617187-50.511719-50.515624 0-27.898438 22.617188-50.511719 50.511719-50.511719zm0 0" fill="#ffe66b"/><path d="m394.011719 248.0625c-16.265625 0-29.453125 13.1875-29.453125 29.457031v29.457031h29.453125c16.269531 0 29.457031-13.1875 29.457031-29.457031s-13.1875-29.457031-29.457031-29.457031zm0 0" fill="#f79e31"/><path d="m335.101562 248.0625c16.269532 0 29.457032 13.1875 29.457032 29.457031v29.457031h-29.457032c-16.265624 0-29.453124-13.1875-29.453124-29.457031s13.1875-29.457031 29.453124-29.457031zm0 0" fill="#f79e31"/><path d="m464.515625 386.15625v108.503906c0 9.574219-7.757813 17.339844-17.335937 17.339844h-165.242188c-9.578125 0-17.339844-7.765625-17.339844-17.339844v-108.503906zm0 0" fill="#6b9dc6"/><path d="m264.597656 376.832031h199.917969v32.707031h-199.917969zm0 0" fill="#4588b5"/><path d="m464.847656 386.15625h-200.582031c-9.992187 0-18.089844-8.097656-18.089844-18.089844v-43.519531c0-9.992187 8.097657-18.09375 18.089844-18.09375h200.582031c9.992188 0 18.089844 8.101563 18.089844 18.09375v43.519531c0 9.992188-8.097656 18.089844-18.089844 18.089844zm0 0" fill="#6b9dc6"/><path d="m341.097656 306.453125h46.914063v205.257813h-46.914063zm0 0" fill="#ffe66b"/><path d="m341.097656 386.15625h46.914063v32.890625h-46.914063zm0 0" fill="#f79e31"/></svg>