<svg xmlns="http://www.w3.org/2000/svg" viewBox="0 0 504.519 504.519"><path d="M252.26 354.068h137.058s24.025 74.831 24.025 74.437c0 41.748-72.074 75.618-161.477 75.618-89.009 0-161.477-33.871-161.477-75.618l24.025-74.437H252.26z" fill="#cc9357"/><path d="M327.879 455.286c-26.388-28.751-64.591-52.775-83.102-41.354-7.877 4.726-14.572 18.117-1.182 53.169 3.938 11.028 9.452 23.631 15.36 37.022 2.363 0 4.726 0 7.089-.394-5.514-11.815-11.028-24.812-16.148-38.991-9.058-24.025-9.452-40.172-1.575-45.292 12.997-8.271 47.655 10.24 75.225 40.172 8.271 9.058 15.754 19.692 22.055 30.72 1.969-.788 3.938-1.575 5.908-1.969-7.089-12.603-14.965-23.631-23.63-33.083zm38.597-15.36c-22.055-25.6-52.382-38.203-76.406-48.443-9.846-3.938-18.117-7.483-24.418-11.422-15.754-9.452-25.206-18.117-28.751-25.994h-6.695c3.151 10.634 13.785 20.874 32.295 31.902 6.695 3.938 15.36 7.483 25.206 11.815 31.508 12.997 74.043 30.72 92.554 77.194 1.969-1.182 3.938-2.363 5.514-3.545-4.727-11.815-11.028-22.055-19.299-31.507zm-54.745-75.618c15.36 13.785 35.052 18.117 48.443 11.028 7.877-3.938 12.997-11.815 14.572-21.662h-6.302c-1.575 7.483-5.514 12.603-11.028 15.754-11.422 5.908-27.963 1.575-41.354-10.24-1.969-1.969-3.545-3.545-5.12-5.514h-8.271c2.365 3.544 5.122 6.695 9.06 10.634zm-33.871 79.163c-5.514-.394-8.271 2.363-9.452 4.726-5.908 10.24-2.757 33.477 5.908 55.138l6.695-.394c-8.665-21.268-11.815-43.323-7.089-51.594.394-.394.788-1.575 3.545-1.575 11.028.394 35.84 19.692 53.957 44.505 2.363-.394 4.332-1.182 6.695-1.969-19.299-26.388-46.474-48.05-60.259-48.837zm116.185-12.997c-.394-1.575-1.969-2.757-3.938-2.363-1.575.394-2.757 1.969-2.363 3.938l7.089 32.295c1.969-1.575 3.938-3.545 5.514-5.12-3.545-16.541-6.302-28.75-6.302-28.75zm-13.785-30.72c-26.388 10.634-92.554-24.418-111.458-45.686h-8.271c.394.394.394.788.788.788 14.572 20.086 72.074 53.169 107.52 53.169 5.12 0 9.846-.788 14.178-2.363 9.452-3.938 12.997-16.148 12.997-32.689-3.545-11.028-6.302-18.905-6.302-18.905h-1.575c2.757 24.024 1.576 42.141-7.877 45.686zm-76.012 95.311c-1.575-.788-3.545-.394-4.332 1.182s-.394 3.545 1.182 4.332c3.151-.394 6.302-.788 9.058-1.575-2.363-1.576-4.332-3.152-5.908-3.939zm5.908-12.997c-6.302-5.514-15.36-11.028-21.268-9.058-6.695 2.757-8.665 11.422-4.726 24.025.394 1.575 1.182 3.545 1.969 5.12l6.695-.788c-1.182-1.969-1.969-4.332-2.757-6.695-2.757-8.271-2.363-14.966.788-16.148 1.182-.394 6.302.394 14.966 7.877 3.938 3.151 7.483 7.089 11.028 11.028l7.089-1.575c-4.332-5.122-9.058-10.242-13.784-13.786zM203.817 380.062c-3.938-9.846-7.089-18.905-10.24-26.388h-7.089c3.151 7.877 7.089 17.723 11.028 28.357 16.148 41.748 33.083 84.677 50.412 121.698h7.089c-20.086-42.929-38.597-90.978-51.2-123.667zm208.739 46.08c-1.575-5.12-5.12-15.754-8.665-27.569.788 9.058 1.575 18.511 2.363 27.963.394 7.483 1.182 14.572 1.969 21.662 2.757-4.726 4.332-9.846 5.12-14.966.001-.001-.787-7.09-.787-7.09zm-179.594 63.015c-12.209-23.237-24.812-47.262-30.326-61.834-1.575-3.938-2.757-8.271-4.332-12.603-5.908-18.117-13.785-39.778-26.782-60.258h-7.877c14.178 20.874 22.055 43.717 28.357 62.622 1.575 4.726 3.151 8.665 4.332 12.997 5.514 14.966 18.117 39.385 30.326 62.622 1.969 3.545 3.938 7.483 5.908 11.422 2.363 0 4.726.394 7.483.394-1.575-5.122-4.332-10.242-7.089-15.362zm-116.578-50.412c-5.908-10.634-12.209-20.48-19.298-29.932l-2.363 7.483c5.514 8.271 11.028 16.542 16.148 25.6 7.877 14.178 16.148 26.782 24.418 38.597 3.545 1.969 7.483 3.545 11.815 5.12-10.634-13.785-20.874-29.145-30.72-46.868zm37.809 22.449l-6.695-7.877c-16.935-19.692-27.175-38.991-36.628-57.502l-5.514-10.634-2.757 8.665c.788 1.575 1.575 3.151 2.757 5.12 9.846 18.905 20.086 38.597 37.809 58.683l6.695 7.877c8.665 9.846 17.329 19.692 25.6 29.145l10.634 2.363c-10.634-11.422-21.661-23.631-31.901-35.84zm10.24-28.357c.788 1.575 2.757 1.969 4.332.788 1.575-.788 1.969-2.757.788-4.332l-37.415-58.289c-2.363-3.938-6.695-10.24-10.24-16.935h-7.089c3.545 5.514 7.483 12.209 12.603 20.086l37.021 58.682zm-47.656-46.08c11.422 21.662 23.631 44.505 44.898 68.135 30.72 34.265 37.415 34.658 41.354 31.902 3.938-2.363 5.908-8.271-11.815-44.898-9.058-18.511-15.36-35.052-21.268-50.018s-10.634-27.569-16.935-38.203h-7.483c6.695 10.24 11.815 23.631 18.511 40.566 5.514 14.572 12.209 31.508 21.268 50.412 12.603 25.994 13.785 33.871 13.785 36.234-2.363-.788-10.24-5.514-32.689-30.326-20.874-23.237-32.689-45.292-44.111-66.56-3.545-6.695-7.089-13.391-10.634-19.692l-2.757 8.271c2.756 4.725 5.513 9.451 7.876 14.177zm-25.6 41.354l-.394.788c0 14.572 9.058 28.357 24.418 40.172-7.088-14.179-14.965-27.57-24.024-40.96z" fill="#d49d5e"/><path d="M207.362 437.169s22.449 5.12 44.898 5.12c22.843 0 45.292-5.12 45.292-5.12 5.514 0 9.846 4.726 9.846 10.24v10.24c0 5.514-4.332 10.24-9.846 10.24 0 0-22.843 5.12-45.292 5.12s-44.898-5.12-44.898-5.12c-5.514 0-9.846-4.726-9.846-10.24v-10.24c-.394-5.907 4.332-10.24 9.846-10.24z" fill="#f6c37a"/><path d="M212.876 448.985c-2.363 0-3.938 1.575-3.938 3.938s1.575 3.938 3.938 3.938 3.938-1.575 3.938-3.938-1.575-3.938-3.938-3.938zm78.769 0c-2.363 0-3.938 1.575-3.938 3.938s1.575 3.938 3.938 3.938 3.938-1.575 3.938-3.938-1.575-3.938-3.938-3.938z" fill="#e3b470"/><path d="M252.26 0c113.034 0 204.8 91.766 204.8 204.8s-91.766 204.8-204.8 204.8-204.8-91.766-204.8-204.8S139.227 0 252.26 0z" fill="#93d3e8"/><path d="M252.26 370.215c-106.338 0-193.772-81.132-204.012-185.108-.788 6.302-.788 12.997-.788 19.692 0 113.034 91.766 204.8 204.8 204.8s204.8-91.766 204.8-204.8c0-6.695-.394-13.391-.788-19.692-10.239 103.976-97.673 185.108-204.012 185.108z" fill="#84bdd0"/><path d="M252.26 299.323c-78.375 0-141.785 23.237-141.785 51.988v1.575c36.628 35.446 86.646 57.108 141.785 57.108s104.763-21.662 141.785-57.108v-1.575c0-28.751-63.409-51.988-141.785-51.988z" fill="#dff2f8"/><path d="M394.045 352.492v-1.575c0-8.665-5.908-16.935-16.148-24.025-34.658 27.175-78.375 43.323-125.637 43.323s-90.978-16.148-125.637-42.929c-10.24 7.089-16.148 15.36-16.148 24.025v1.575c36.628 35.446 86.646 57.108 141.785 57.108 55.139-.394 104.764-22.056 141.785-57.502z" fill="#c8d9df"/><path d="M338.907 324.135c0 14.178-38.597 34.265-86.646 34.265s-86.646-20.086-86.646-34.265L252.26 204.8l86.647 119.335z" fill="#3db39e"/><path d="M306.217 279.237L252.26 204.8l-53.957 74.437c11.815 7.089 31.508 13.391 53.957 13.391s42.142-6.302 53.957-13.391z" fill="#37a18e"/><path d="M319.214 252.455c0 11.422-29.932 27.175-66.954 27.175s-66.954-15.754-66.954-27.175l66.954-94.917 66.954 94.917z" fill="#3db39e"/><path d="M290.857 212.677l-38.597-55.138-38.597 55.138c9.452 4.726 23.237 8.271 38.597 8.271s29.145-3.939 38.597-8.271z" fill="#37a18e"/><path d="M303.46 187.865c0 8.665-22.843 20.874-51.2 20.874s-51.2-12.209-51.2-20.874l51.2-73.649 51.2 73.649z" fill="#3db39e"/><path d="M177.43 102.4c-6.695 0-11.815 5.12-11.815 11.815s5.12 11.815 11.815 11.815 11.815-5.12 11.815-11.815c0-6.301-5.12-11.815-11.815-11.815zm43.323 35.446c-6.695 0-11.815 5.12-11.815 11.815s5.12 11.815 11.815 11.815 11.815-5.12 11.815-11.815c0-6.301-5.12-11.815-11.815-11.815zm66.954-78.769c6.695 0 11.815-5.12 11.815-11.815s-5.12-11.815-11.815-11.815-11.815 5.12-11.815 11.815 5.119 11.815 11.815 11.815zM342.845 204.8c-6.695 0-11.815 5.12-11.815 11.815s5.12 11.815 11.815 11.815 11.815-5.12 11.815-11.815c0-6.301-5.12-11.815-11.815-11.815zm-35.052 67.348c-5.514 0-9.846 4.332-9.846 10.24 0 5.514 4.332 10.24 9.846 10.24s9.846-4.332 9.846-10.24c0-5.514-4.332-10.24-9.846-10.24zm-150.056-51.594c-6.695 0-11.815 5.12-11.815 11.815s5.12 11.815 11.815 11.815 11.815-5.12 11.815-11.815c.001-6.301-5.119-11.815-11.815-11.815zm-15.753-39.385c6.695 0 11.815-5.12 11.815-11.815s-5.12-11.815-11.815-11.815-11.815 5.12-11.815 11.815 5.119 11.815 11.815 11.815zm118.153 43.323c-6.695 0-11.815 5.12-11.815 11.815s5.12 11.815 11.815 11.815 11.815-5.12 11.815-11.815c.001-6.301-5.119-11.815-11.815-11.815zM295.584 102.4c0-6.695-5.12-11.815-11.815-11.815s-11.815 5.12-11.815 11.815 5.12 11.815 11.815 11.815 11.815-5.12 11.815-11.815zm15.753 74.831c0-6.695-5.12-11.815-11.815-11.815s-11.815 5.12-11.815 11.815 5.12 11.815 11.815 11.815 11.815-5.12 11.815-11.815zm55.139 90.584c-6.695 0-11.815 5.12-11.815 11.815s5.12 11.815 11.815 11.815 11.815-5.12 11.815-11.815c0-6.301-5.12-11.815-11.815-11.815zm35.446-47.261c-6.695 0-11.815 5.12-11.815 11.815s5.12 11.815 11.815 11.815 11.815-5.12 11.815-11.815c0-6.301-5.12-11.815-11.815-11.815zm-141.785 94.523c-6.695 0-11.815 5.12-11.815 11.815s5.12 11.815 11.815 11.815 11.815-5.12 11.815-11.815c.001-6.301-5.119-11.815-11.815-11.815zm-47.261-15.754c-6.695 0-11.815 5.12-11.815 11.815s5.12 11.815 11.815 11.815 11.815-5.12 11.815-11.815c0-6.301-5.12-11.815-11.815-11.815zm11.815-259.938c-6.695 0-11.815 5.12-11.815 11.815s5.12 11.815 11.815 11.815 11.815-5.12 11.815-11.815c.001-6.302-5.119-11.815-11.815-11.815zM102.599 208.738c-6.695 0-11.815 5.12-11.815 11.815s5.12 11.815 11.815 11.815 11.815-5.12 11.815-11.815c0-6.301-5.12-11.815-11.815-11.815zm244.185-74.83c0-6.695-5.12-11.815-11.815-11.815s-11.815 5.12-11.815 11.815c0 6.695 5.12 11.815 11.815 11.815s11.815-5.12 11.815-11.815zm-192.985-51.2c6.695 0 11.815-5.12 11.815-11.815s-5.12-11.815-11.815-11.815-11.815 5.12-11.815 11.815 5.12 11.815 11.815 11.815zm-19.692 181.169c-6.695 0-11.815 5.12-11.815 11.815s5.12 11.815 11.815 11.815c6.695 0 11.815-5.12 11.815-11.815 0-6.301-5.12-11.815-11.815-11.815zm-27.57-141.785c-6.695 0-11.815 5.12-11.815 11.815 0 6.695 5.12 11.815 11.815 11.815s11.815-5.12 11.815-11.815c.001-6.301-5.119-11.815-11.815-11.815zm283.57 63.016c0 6.695 5.12 11.815 11.815 11.815s11.815-5.12 11.815-11.815-5.12-11.815-11.815-11.815-11.815 5.513-11.815 11.815zm7.877-51.2c0-6.695-5.12-11.815-11.815-11.815s-11.815 5.12-11.815 11.815c0 6.695 5.12 11.815 11.815 11.815s11.815-5.12 11.815-11.815zm-35.447-39.385c6.695 0 11.815-5.12 11.815-11.815s-5.12-11.815-11.815-11.815-11.815 5.12-11.815 11.815 5.12 11.815 11.815 11.815zM177.43 102.4c-6.695 0-11.815 5.12-11.815 11.815s5.12 11.815 11.815 11.815 11.815-5.12 11.815-11.815c0-6.301-5.12-11.815-11.815-11.815zm43.323 35.446c-6.695 0-11.815 5.12-11.815 11.815s5.12 11.815 11.815 11.815 11.815-5.12 11.815-11.815c0-6.301-5.12-11.815-11.815-11.815zm66.954-78.769c6.695 0 11.815-5.12 11.815-11.815s-5.12-11.815-11.815-11.815-11.815 5.12-11.815 11.815 5.119 11.815 11.815 11.815zM342.845 204.8c-6.695 0-11.815 5.12-11.815 11.815s5.12 11.815 11.815 11.815 11.815-5.12 11.815-11.815c0-6.301-5.12-11.815-11.815-11.815zm-35.052 67.348c-5.514 0-9.846 4.332-9.846 10.24 0 5.514 4.332 10.24 9.846 10.24s9.846-4.332 9.846-10.24c0-5.514-4.332-10.24-9.846-10.24zm-150.056-51.594c-6.695 0-11.815 5.12-11.815 11.815s5.12 11.815 11.815 11.815 11.815-5.12 11.815-11.815c.001-6.301-5.119-11.815-11.815-11.815zm-15.753-39.385c6.695 0 11.815-5.12 11.815-11.815s-5.12-11.815-11.815-11.815-11.815 5.12-11.815 11.815 5.119 11.815 11.815 11.815zm118.153 43.323c-6.695 0-11.815 5.12-11.815 11.815s5.12 11.815 11.815 11.815 11.815-5.12 11.815-11.815c.001-6.301-5.119-11.815-11.815-11.815zM295.584 102.4c0-6.695-5.12-11.815-11.815-11.815s-11.815 5.12-11.815 11.815 5.12 11.815 11.815 11.815 11.815-5.12 11.815-11.815zm15.753 74.831c0-6.695-5.12-11.815-11.815-11.815s-11.815 5.12-11.815 11.815 5.12 11.815 11.815 11.815 11.815-5.12 11.815-11.815zm55.139 90.584c-6.695 0-11.815 5.12-11.815 11.815s5.12 11.815 11.815 11.815 11.815-5.12 11.815-11.815c0-6.301-5.12-11.815-11.815-11.815zm35.446-47.261c-6.695 0-11.815 5.12-11.815 11.815s5.12 11.815 11.815 11.815 11.815-5.12 11.815-11.815c0-6.301-5.12-11.815-11.815-11.815zm-141.785 94.523c-6.695 0-11.815 5.12-11.815 11.815s5.12 11.815 11.815 11.815 11.815-5.12 11.815-11.815c.001-6.301-5.119-11.815-11.815-11.815zm-47.261-15.754c-6.695 0-11.815 5.12-11.815 11.815s5.12 11.815 11.815 11.815 11.815-5.12 11.815-11.815c0-6.301-5.12-11.815-11.815-11.815zm11.815-259.938c-6.695 0-11.815 5.12-11.815 11.815s5.12 11.815 11.815 11.815 11.815-5.12 11.815-11.815c.001-6.302-5.119-11.815-11.815-11.815zM102.599 208.738c-6.695 0-11.815 5.12-11.815 11.815s5.12 11.815 11.815 11.815 11.815-5.12 11.815-11.815c0-6.301-5.12-11.815-11.815-11.815zm244.185-74.83c0-6.695-5.12-11.815-11.815-11.815s-11.815 5.12-11.815 11.815c0 6.695 5.12 11.815 11.815 11.815s11.815-5.12 11.815-11.815zm-192.985-51.2c6.695 0 11.815-5.12 11.815-11.815s-5.12-11.815-11.815-11.815-11.815 5.12-11.815 11.815 5.12 11.815 11.815 11.815zm-19.692 181.169c-6.695 0-11.815 5.12-11.815 11.815s5.12 11.815 11.815 11.815c6.695 0 11.815-5.12 11.815-11.815 0-6.301-5.12-11.815-11.815-11.815zm-27.57-141.785c-6.695 0-11.815 5.12-11.815 11.815 0 6.695 5.12 11.815 11.815 11.815s11.815-5.12 11.815-11.815c.001-6.301-5.119-11.815-11.815-11.815zm283.57 63.016c0 6.695 5.12 11.815 11.815 11.815s11.815-5.12 11.815-11.815-5.12-11.815-11.815-11.815-11.815 5.513-11.815 11.815zm7.877-51.2c0-6.695-5.12-11.815-11.815-11.815s-11.815 5.12-11.815 11.815c0 6.695 5.12 11.815 11.815 11.815s11.815-5.12 11.815-11.815zm-35.447-39.385c6.695 0 11.815-5.12 11.815-11.815s-5.12-11.815-11.815-11.815-11.815 5.12-11.815 11.815 5.12 11.815 11.815 11.815z" fill="#fff"/></svg>