<?xml version="1.0" encoding="iso-8859-1"?>
<!-- Generator: Adobe Illustrator 19.0.0, SVG Export Plug-In . SVG Version: 6.00 Build 0)  -->
<svg version="1.1" id="Layer_1" xmlns="http://www.w3.org/2000/svg" xmlns:xlink="http://www.w3.org/1999/xlink" x="0px" y="0px"
	 viewBox="0 0 499.2 499.2" style="enable-background:new 0 0 499.2 499.2; opacity: 0.2;" xml:space="preserve">
<path style="fill:#0D9B2E;" d="M249.6,0C126.4,0,27.2,100,27.2,222.4c0,123.2,99.2,222.4,222.4,222.4S472,344.8,472,222.4
	S372.8,0,249.6,0z M249.6,364.8c-78.4,0-142.4-64-142.4-142.4S171.2,80,249.6,80S392,144,392,222.4S328,364.8,249.6,364.8z"/>
<path style="fill:#0A7C38;" d="M27.2,222.4c0,123.2,99.2,222.4,222.4,222.4S472,344.8,472,222.4S372.8,0,249.6,0 M249.6,364.8
	c-78.4,0-142.4-64-142.4-142.4S171.2,80,249.6,80S392,144,392,222.4S328,364.8,249.6,364.8z"/>
<path style="fill:#036632;" d="M249.6,0v80.8c80,0.8,140.8,64,140.8,142.4c0,77.6-60.8,140.8-140.8,142.4v80.8
	c120-0.8,220.8-100,220.8-222.4C470.4,100,369.6,0.8,249.6,0z"/>
<path style="fill:#0D9B2E;" d="M89.6,7.2c-8,7.2-19.2,22.4-19.2,40s11.2,32.8,19.2,40V7.2z"/>
<path style="fill:#0A7C38;" d="M89.6,7.2c16,7.2,19.2,22.4,19.2,40s-3.2,32.8-19.2,40V7.2z"/>
<path style="fill:#0D9B2E;" d="M132.8,255.2c3.2-12.8-2.4-29.6-14.4-42.4C105.6,200,89.6,195.2,76,198.4L132.8,255.2z"/>
<path style="fill:#0A7C38;" d="M132.8,255.2c-12.8,3.2-29.6-1.6-42.4-14.4C77.6,228,72.8,212,76,198.4L132.8,255.2z"/>
<path style="fill:#0D9B2E;" d="M70.4,130.4c-12.8-3.2-29.6,2.4-42.4,14.4c-12.8,12.8-17.6,28.8-14.4,42.4L70.4,130.4z"/>
<path style="fill:#0A7C38;" d="M70.4,130.4c3.2,12.8-1.6,29.6-14.4,42.4s-28.8,17.6-42.4,14.4L70.4,130.4z"/>
<path style="fill:#0D9B2E;" d="M90.4,280.8c-12.8-3.2-29.6,2.4-42.4,14.4c-12,12.8-17.6,29.6-14.4,42.4L90.4,280.8z"/>
<path style="fill:#0A7C38;" d="M90.4,280.8c3.2,12.8-1.6,29.6-14.4,42.4c-12.8,12-28.8,17.6-42.4,14.4L90.4,280.8z"/>
<path style="fill:#0D9B2E;" d="M72,254.4c-12.8-3.2-29.6,1.6-42.4,14.4S12,297.6,15.2,311.2L72,254.4z"/>
<path style="fill:#0A7C38;" d="M72,254.4c3.2,12.8-2.4,29.6-14.4,42.4c-12.8,12.8-28.8,17.6-42.4,14.4L72,254.4z"/>
<path style="fill:#0D9B2E;" d="M89.6,238.4c-7.2-11.2-22.4-19.2-40-19.2s-32.8,8-40,19.2H89.6z"/>
<path style="fill:#0A7C38;" d="M89.6,238.4c-7.2,11.2-22.4,19.2-40,19.2s-32.8-8-40-19.2H89.6z"/>
<path style="fill:#0D9B2E;" d="M129.6,11.2c-8,7.2-19.2,22.4-19.2,40s11.2,32.8,19.2,40V11.2z"/>
<path style="fill:#0A7C38;" d="M129.6,11.2c8,7.2,19.2,22.4,19.2,40s-11.2,32.8-19.2,40V11.2z"/>
<path style="fill:#0D9B2E;" d="M45.6,64C44,72,48,81.6,56,89.6c8,7.2,18.4,10.4,26.4,8L45.6,64z"/>
<g>
	<path style="fill:#0A7C38;" d="M45.6,64c8-2.4,18.4,0.8,26.4,8s11.2,17.6,9.6,25.6L45.6,64z"/>
	<path style="fill:#0A7C38;" d="M5.6,210.4c4.8,7.2,14.4,11.2,24.8,11.2c11.2,0,20-5.6,24-12.8L5.6,210.4z"/>
</g>
<g>
	<path style="fill:#0D9B2E;" d="M5.6,210.4c4-7.2,13.6-12.8,24-12.8c11.2,0,20.8,4,24.8,11.2L5.6,210.4z"/>
	<path style="fill:#0D9B2E;" d="M153.6,161.6c-4.8-7.2-14.4-11.2-24.8-11.2c-11.2,0-20,5.6-24,12.8L153.6,161.6z"/>
</g>
<g>
	<path style="fill:#0A7C38;" d="M153.6,161.6c-4,7.2-13.6,12.8-24,12.8c-11.2,0-20.8-4-24.8-11.2L153.6,161.6z"/>
	<path style="fill:#0A7C38;" d="M172,311.2c1.6-8-1.6-18.4-9.6-25.6s-18.4-10.4-26.4-8L172,311.2z"/>
</g>
<g>
	<path style="fill:#0D9B2E;" d="M172,311.2c-8,2.4-18.4-0.8-26.4-8s-11.2-17.6-9.6-25.6L172,311.2z"/>
	<path style="fill:#0D9B2E;" d="M59.2,121.6c-4.8-7.2-14.4-11.2-24.8-11.2c-11.2,0-20,5.6-24,12.8L59.2,121.6z"/>
</g>
<path style="fill:#0A7C38;" d="M59.2,121.6c-4,7.2-13.6,12.8-24,12.8c-11.2,0-20.8-4-24.8-11.2L59.2,121.6z"/>
<path style="fill:#0D9B2E;" d="M35.2,28.8c-0.8,4,1.6,9.6,5.6,13.6s9.6,5.6,13.6,4L35.2,28.8z"/>
<path style="fill:#0A7C38;" d="M35.2,28.8c4-0.8,9.6,0,13.6,4s6.4,8.8,4.8,13.6L35.2,28.8z"/>
<g>
	<path style="fill:#0D9B2E;" d="M45.6,90.4c-2.4-4-7.2-6.4-12.8-5.6c-5.6,0-10.4,3.2-12.8,6.4L45.6,90.4z"/>
	<path style="fill:#0D9B2E;" d="M45.6,90.4c-2.4,4-7.2,7.2-12.8,7.2S22.4,95.2,20,92L45.6,90.4z"/>
	<path style="fill:#0D9B2E;" d="M62.4,354.4c-4-0.8-9.6,0.8-13.6,4.8s-5.6,9.6-4,13.6L62.4,354.4z"/>
</g>
<path style="fill:#0A7C38;" d="M62.4,354.4c0.8,4,0,9.6-4,13.6s-8.8,6.4-13.6,4.8L62.4,354.4z"/>
<g>
	<path style="fill:#0D9B2E;" d="M122.4,188.8c-0.8,4,0.8,9.6,4.8,13.6s9.6,5.6,13.6,4L122.4,188.8z"/>
	<path style="fill:#0D9B2E;" d="M122.4,188.8c4-0.8,9.6,0,13.6,4s6.4,8.8,4.8,13.6L122.4,188.8z"/>
</g>
<path style="fill:#0A7C38;" d="M148,141.6c4,0.8,9.6-0.8,13.6-4.8s5.6-9.6,4-13.6L148,141.6z"/>
<path style="fill:#0D9B2E;" d="M148,141.6c-0.8-4,0-9.6,4-13.6c4-4,8.8-6.4,13.6-4.8L148,141.6z"/>
<path style="fill:#0A7C38;" d="M409.6,7.2c8,7.2,19.2,22.4,19.2,40s-11.2,32.8-19.2,40V7.2z"/>
<g>
	<path style="fill:#0D9B2E;" d="M409.6,7.2c-16,7.2-19.2,22.4-19.2,40s3.2,32.8,19.2,40V7.2z"/>
	<path style="fill:#0D9B2E;" d="M366.4,255.2c-3.2-12.8,2.4-29.6,14.4-42.4c12.8-12.8,28.8-17.6,42.4-14.4L366.4,255.2z"/>
</g>
<path style="fill:#0A7C38;" d="M366.4,255.2c12.8,3.2,29.6-1.6,42.4-14.4c12.8-12.8,17.6-28.8,14.4-42.4L366.4,255.2z"/>
<path style="fill:#0D9B2E;" d="M428.8,130.4c12.8-3.2,29.6,2.4,42.4,14.4c12.8,12.8,17.6,28.8,14.4,42.4L428.8,130.4z"/>
<path style="fill:#0A7C38;" d="M428.8,130.4c-3.2,12.8,1.6,29.6,14.4,42.4s28.8,17.6,42.4,14.4L428.8,130.4z"/>
<path style="fill:#0D9B2E;" d="M408.8,280.8c12.8-3.2,29.6,2.4,42.4,14.4c12.8,12.8,17.6,28.8,14.4,42.4L408.8,280.8z"/>
<path style="fill:#0A7C38;" d="M408.8,280.8c-3.2,12.8,1.6,29.6,14.4,42.4s28.8,17.6,42.4,14.4L408.8,280.8z"/>
<path style="fill:#0D9B2E;" d="M427.2,254.4c12.8-3.2,29.6,1.6,42.4,14.4s17.6,28.8,14.4,42.4L427.2,254.4z"/>
<g>
	<path style="fill:#0A7C38;" d="M427.2,254.4c-3.2,12.8,2.4,29.6,14.4,42.4c12.8,12.8,28.8,17.6,42.4,14.4L427.2,254.4z"/>
	<path style="fill:#0A7C38;" d="M409.6,238.4c7.2-11.2,22.4-19.2,40-19.2s32.8,8,40,19.2H409.6z"/>
</g>
<path style="fill:#0D9B2E;" d="M409.6,238.4c7.2,11.2,22.4,19.2,40,19.2s32.8-8,40-19.2H409.6z"/>
<path style="fill:#0A7C38;" d="M369.6,11.2c8,7.2,19.2,22.4,19.2,40s-11.2,32.8-19.2,40V11.2z"/>
<path style="fill:#0D9B2E;" d="M369.6,11.2c-8,7.2-19.2,22.4-19.2,40s11.2,32.8,19.2,40V11.2z"/>
<path style="fill:#0A7C38;" d="M453.6,64c1.6,8-1.6,18.4-9.6,25.6s-18.4,10.4-26.4,8L453.6,64z"/>
<g>
	<path style="fill:#0D9B2E;" d="M453.6,64c-8-2.4-18.4,0.8-26.4,8s-11.2,17.6-9.6,25.6L453.6,64z"/>
	<path style="fill:#0D9B2E;" d="M493.6,210.4c-4.8,7.2-14.4,11.2-24.8,11.2c-11.2,0-20-5.6-24-12.8L493.6,210.4z"/>
</g>
<path style="fill:#0A7C38;" d="M493.6,210.4c-4-7.2-13.6-12.8-24-12.8c-11.2,0-20.8,4-24.8,11.2L493.6,210.4z"/>
<path style="fill:#0D9B2E;" d="M345.6,161.6c4.8-7.2,14.4-11.2,24.8-11.2c11.2,0,20,5.6,24,12.8L345.6,161.6z"/>
<path style="fill:#0A7C38;" d="M345.6,161.6c4,7.2,13.6,12.8,24,12.8c11.2,0,20.8-4,24.8-11.2L345.6,161.6z"/>
<path style="fill:#0D9B2E;" d="M327.2,311.2c-1.6-8,1.6-18.4,9.6-25.6s18.4-10.4,26.4-8L327.2,311.2z"/>
<path style="fill:#0A7C38;" d="M327.2,311.2c8,2.4,18.4-0.8,26.4-8s11.2-17.6,9.6-25.6L327.2,311.2z"/>
<path style="fill:#0D9B2E;" d="M440,121.6c4.8-7.2,14.4-11.2,24.8-11.2c11.2,0,20,5.6,24,12.8L440,121.6z"/>
<path style="fill:#0A7C38;" d="M440,121.6c4,7.2,13.6,12.8,24,12.8c11.2,0,20.8-4,24.8-11.2L440,121.6z"/>
<g>
	<path style="fill:#0D9B2E;" d="M464,28.8c0.8,4-0.8,9.6-4.8,13.6s-9.6,5.6-13.6,4L464,28.8z"/>
	<path style="fill:#0D9B2E;" d="M464,28.8c-4-0.8-9.6,0-13.6,4s-6.4,8.8-4.8,13.6L464,28.8z"/>
	<path style="fill:#0D9B2E;" d="M453.6,90.4c2.4-4,7.2-6.4,12.8-5.6c5.6,0,10.4,3.2,12.8,6.4L453.6,90.4z"/>
	<path style="fill:#0D9B2E;" d="M453.6,90.4c2.4,4,7.2,6.4,12.8,6.4c5.6,0,10.4-2.4,12.8-5.6L453.6,90.4z"/>
	<path style="fill:#0D9B2E;" d="M436.8,354.4c4-0.8,9.6,0.8,13.6,4.8s5.6,9.6,4,13.6L436.8,354.4z"/>
</g>
<path style="fill:#0A7C38;" d="M436.8,354.4c-0.8,4,0,9.6,4,13.6s8.8,6.4,13.6,4.8L436.8,354.4z"/>
<path style="fill:#0D9B2E;" d="M376.8,188.8c0.8,4-0.8,9.6-4.8,13.6s-9.6,5.6-13.6,4L376.8,188.8z"/>
<path style="fill:#0A7C38;" d="M376.8,188.8c-4-0.8-9.6,0-13.6,4s-6.4,8.8-4.8,13.6L376.8,188.8z"/>
<g>
	<path style="fill:#0D9B2E;" d="M351.2,141.6c-4,0.8-9.6-0.8-13.6-4.8s-5.6-9.6-4-13.6L351.2,141.6z"/>
	<path style="fill:#0D9B2E;" d="M351.2,141.6c0.8-4,0-9.6-4-13.6c-4-4-8.8-6.4-13.6-4.8L351.2,141.6z"/>
</g>
<g>
	<path style="fill:#C92D2D;" d="M224.8,338.4c-5.6-25.6-39.2-62.4-87.2,13.6C88,427.2,46.4,416.8,24,385.6c0,0,4,37.6,29.6,50.4
		c0,0-32,18.4-42.4,16c0,0,31.2,52,99.2,13.6c60-34.4,75.2-145.6,106.4-126.4l11.2,11.2L224.8,338.4z"/>
	<path style="fill:#C92D2D;" d="M224.8,338.4c-5.6-25.6-39.2-62.4-87.2,13.6C88,427.2,46.4,416.8,24,385.6c0,0,4,37.6,29.6,50.4
		c0,0-32,18.4-42.4,16c0,0,31.2,52,99.2,13.6c60-34.4,75.2-145.6,106.4-126.4l11.2,11.2L224.8,338.4z"/>
</g>
<g>
	<path style="fill:#A01515;" d="M44.8,430.4c1.6,0.8,3.2,2.4,4.8,3.2L44.8,430.4z"/>
	<path style="fill:#A01515;" d="M223.2,333.6l-8,4.8c0,0,0.8,0,0.8,0.8l11.2,11.2l-3.2-12C224,336.8,224,335.2,223.2,333.6z"/>
	<path style="fill:#A01515;" d="M52.8,436L52.8,436c-4,2.4-32,17.6-41.6,16c0,0,31.2,52,99.2,13.6c40.8-23.2,60.8-81.6,79.2-111.2
		L52.8,436z"/>
</g>
<g>
	
		<ellipse transform="matrix(-0.4799 -0.8773 0.8773 -0.4799 -15.324 638.6891)" style="fill:#EF4343;" cx="181.651" cy="323.887" rx="7.2" ry="19.2"/>
	
		<ellipse transform="matrix(-0.4792 -0.8777 0.8777 -0.4792 -62.8713 647.5495)" style="fill:#EF4343;" cx="160.68" cy="342.427" rx="3.2" ry="4.8"/>
</g>
<g>
	<path style="fill:#C92D2D;" d="M274.4,338.4c5.6-25.6,39.2-62.4,87.2,13.6c48.8,76,90.4,64.8,112.8,34.4c0,0-4,37.6-29.6,50.4
		c0,0,32,18.4,42.4,16c0,0-31.2,52-99.2,13.6C328,432,312.8,320.8,281.6,340l-11.2,11.2L274.4,338.4z"/>
	<path style="fill:#C92D2D;" d="M274.4,338.4c5.6-25.6,39.2-62.4,87.2,13.6c48.8,76,90.4,64.8,112.8,34.4c0,0-4,37.6-29.6,50.4
		c0,0,32,18.4,42.4,16c0,0-31.2,52-99.2,13.6C328,432,312.8,320.8,281.6,340l-11.2,11.2L274.4,338.4z"/>
</g>
<g>
	<path style="fill:#A01515;" d="M454.4,430.4c-1.6,1.6-3.2,2.4-4.8,3.2L454.4,430.4z"/>
	<path style="fill:#A01515;" d="M276,333.6l8,4.8c0,0-0.8,0-0.8,0.8L272,350.4l3.2-12C275.2,336.8,275.2,335.2,276,333.6z"/>
	<path style="fill:#A01515;" d="M446.4,436L446.4,436c4,2.4,32,17.6,41.6,16c0,0-31.2,52-99.2,13.6C348,442.4,328,384,309.6,354.4
		L446.4,436z"/>
</g>
<g>
	
		<ellipse transform="matrix(-0.4799 0.8773 -0.8773 -0.4799 754.7719 200.1023)" style="fill:#EF4343;" cx="318.074" cy="323.772" rx="7.2" ry="19.2"/>
	
		<ellipse transform="matrix(-0.4792 0.8777 -0.8777 -0.4792 801.3144 210.2697)" style="fill:#EF4343;" cx="338.274" cy="342.87" rx="3.2" ry="4.8"/>
</g>
<g>
	<path style="fill:#08BF9C;" d="M196.8,239.2c0,0-13.6-14.4,2.4-36.8c16-21.6,50.4,40.8,50.4,40.8s-29.6,208-72,166.4
		c-49.6-48.8-86.4-6.4-86.4-6.4l13.6-20.8l-19.2-1.6c0,0,33.6-28,64.8-11.2c44.8,24.8,58.4,4.8,63.2-21.6c4.8-25.6,2.4-84,2.4-84
		s-28,17.6-32,5.6s-3.2-7.2-2.4-14.4C181.6,248,196.8,239.2,196.8,239.2z"/>
	<path style="fill:#08BF9C;" d="M302.4,239.2c0,0,13.6-14.4-2.4-36.8c-16-21.6-50.4,40.8-50.4,40.8s29.6,208,72,166.4
		c49.6-48.8,86.4-6.4,86.4-6.4l-13.6-20.8l19.2-1.6c0,0-33.6-28-64.8-11.2c-44.8,24.8-58.4,4.8-63.2-21.6s-2.4-84-2.4-84
		s28,17.6,32,5.6s3.2-7.2,2.4-14.4C317.6,248,302.4,239.2,302.4,239.2z"/>
</g>
<path style="fill:#FFD524;" d="M335.2,400c0,34.4-44,61.6-85.6,61.6l0,0c-41.6,0-85.6-28-85.6-61.6l10.4-94.4
	c0-34.4,33.6-61.6,74.4-61.6l0,0c41.6,0,75.2,28,75.2,61.6L335.2,400z"/>
<path style="fill:#EFC40F;" d="M249.6,461.6L249.6,461.6c41.6,0,85.6-28,85.6-61.6L324,305.6c0-34.4-33.6-61.6-75.2-61.6l0,0"/>
<path style="fill:#FFD524;" d="M384.8,438.4c0,23.2-60.8,25.6-135.2,25.6s-135.2-3.2-135.2-25.6s60.8-68.8,135.2-68.8
	S384.8,415.2,384.8,438.4z"/>
<path style="fill:#EFC40F;" d="M249.6,369.6c74.4,0,135.2,45.6,135.2,68.8S324,464,249.6,464"/>
<path style="fill:#895811;" d="M381.6,444.8c0,22.4-59.2,25.6-132,25.6s-132-2.4-132-25.6c0-22.4,59.2-25.6,132-25.6
	S381.6,422.4,381.6,444.8z"/>
<path style="fill:#BC730A;" d="M249.6,469.6c-72.8,0-132-2.4-132-25.6c0-22.4,59.2-25.6,132-25.6"/>
<circle style="fill:#FFD524;" cx="249.6" cy="209.6" r="23.2"/>
<path style="fill:#EFC40F;" d="M232.8,192.8c9.6-8.8,24-8.8,33.6,0c8.8,8.8,8.8,24,0,33.6"/>
<g>
	
		<ellipse transform="matrix(-0.5385 -0.8426 0.8426 -0.5385 98.7457 599.9532)" style="fill:#FFEB99;" cx="213.665" cy="272.936" rx="9.6" ry="28.799"/>
	<path style="fill:#FFEB99;" d="M212.8,379.2c0,3.2-2.4,5.6-5.6,5.6c-3.2,0-5.6-2.4-5.6-5.6s2.4-5.6,5.6-5.6S212.8,376,212.8,379.2z
		"/>
	<circle style="fill:#FFEB99;" cx="235.2" cy="379.2" r="5.6"/>
	<circle style="fill:#FFEB99;" cx="264" cy="379.2" r="5.6"/>
	<circle style="fill:#FFEB99;" cx="292" cy="379.2" r="5.6"/>
</g>
<path style="fill:#FFD524;" d="M266.4,472c0,20.8-4.8,27.2-16.8,27.2c-12,0-16.8-6.4-16.8-27.2s4.8-37.6,16.8-37.6
	C261.6,434.4,266.4,451.2,266.4,472z"/>
<path style="fill:#EFC40F;" d="M249.6,434.4c12,0,16.8,16.8,16.8,37.6s-4.8,27.2-16.8,27.2"/>
<g>
</g>
<g>
</g>
<g>
</g>
<g>
</g>
<g>
</g>
<g>
</g>
<g>
</g>
<g>
</g>
<g>
</g>
<g>
</g>
<g>
</g>
<g>
</g>
<g>
</g>
<g>
</g>
<g>
</g>
</svg>
