<svg height="512pt" viewBox="0 -3 512 512" width="512pt" xmlns="http://www.w3.org/2000/svg" opacity=".25"><path d="M496.582 51.164c8.52 0 15.418 6.895 15.418 15.418v423.707c0 8.508-6.898 15.418-15.418 15.418H15.418c-8.52 0-15.418-6.91-15.418-15.418V66.582c0-8.523 6.898-15.418 15.418-15.418zm0 0" fill="#beebfa"/><path d="M496.582 51.164c8.52 0 15.418 6.895 15.418 15.418v423.707c0 8.508-6.898 15.418-15.418 15.418H256V51.164zm0 0" fill="#7ed8f6"/><path d="M496.582 51.164c8.52 0 15.418 6.895 15.418 15.418v112.57H0V66.582c0-8.523 6.898-15.418 15.418-15.418zm0 0" fill="#2fc0f0"/><path d="M496.582 51.164c8.52 0 15.418 6.895 15.418 15.418v112.57H256V51.164zm0 0" fill="#0d91bd"/><path d="M131.266 0c-8.516 0-15.418 6.902-15.418 15.418v71.484c0 8.516 6.902 15.418 15.418 15.418s15.418-6.902 15.418-15.418V15.418C146.684 6.902 139.78 0 131.266 0zm0 0" fill="#beebfa"/><path d="M380.734 0c-8.515 0-15.418 6.902-15.418 15.418v71.484c0 8.516 6.903 15.418 15.418 15.418s15.418-6.902 15.418-15.418V15.418C396.152 6.902 389.25 0 380.734 0zm0 0" fill="#7ed8f6"/><path d="M323.895 434.66c-8.516 0-15.418-6.902-15.418-15.418v-74.906l-4.782 3.441c-6.914 4.97-16.55 3.395-21.52-3.52-4.972-6.913-3.394-16.546 3.516-21.515l29.204-21a15.418 15.418 0 0 1 24.417 12.52v104.98c0 8.516-6.902 15.418-15.417 15.418zm0 0" fill="#0d91bd"/><path d="M244.117 390.137c0 24.55-19.976 44.523-44.523 44.523h-12.258c-24.55 0-44.524-19.972-44.524-44.523v-46.77c0-24.55 19.973-44.523 44.524-44.523h12.258c24.55 0 44.523 19.972 44.523 44.523zm-56.781-60.457c-7.55 0-13.691 6.14-13.691 13.687v46.77c0 7.547 6.144 13.687 13.69 13.687h12.255c7.547 0 13.687-6.14 13.687-13.687v-46.77c0-7.547-6.14-13.687-13.687-13.687zM105.79 434.66H35.32c-8.515 0-15.418-6.902-15.418-15.418v-11.898c0-30.883 25.125-56.008 56.008-56.008h7.266c3.965 0 7.195-3.23 7.195-7.195v-7.266c0-3.969-3.23-7.195-7.195-7.195H35.32c-8.515 0-15.418-6.903-15.418-15.418s6.903-15.418 15.418-15.418h47.856c20.969 0 38.031 17.062 38.031 38.031v7.266c0 20.968-17.062 38.03-38.031 38.03H75.91c-12.687 0-23.21 9.43-24.93 21.653h54.81c8.515 0 15.417 6.903 15.417 15.418 0 8.516-6.902 15.418-15.418 15.418zm0 0" fill="#2fc0f0"/><path d="M427.523 297.656h-8.054c-22.832 0-41.41 18.574-41.41 41.41v8.051c0 22.836 18.578 41.414 41.41 41.414 6.035-.191 11.062.625 18.629-1.375v32.09c0 8.512 6.902 15.418 15.418 15.418s15.418-6.906 15.418-15.418v-80.18c0-22.836-18.579-41.41-41.41-41.41zm-4.027 60.035c-8.062 0-14.601-6.535-14.601-14.597s6.539-14.602 14.601-14.602 14.602 6.535 14.602 14.602c0 8.062-6.54 14.597-14.602 14.597zm0 0" fill="#0d91bd"/><path d="M512 179.152v69.36l-60.543-22.274a71.765 71.765 0 0 0-49.582 0l-41.074 15.11a56.359 56.359 0 0 1-38.934 0c-35.96-12.22-45.734-19.528-65.867-19.528a71.639 71.639 0 0 0-24.793 4.418l-41.074 15.11a56.359 56.359 0 0 1-38.934 0l-41.074-15.11a71.765 71.765 0 0 0-49.582 0L0 248.512v-69.36zm0 0" fill="#ffe9cc"/><path d="M512 179.152v69.36l-60.543-22.274a71.765 71.765 0 0 0-49.582 0l-41.074 15.11a56.359 56.359 0 0 1-38.934 0c-35.96-12.22-45.734-19.528-65.867-19.528v-42.668zm0 0" fill="#ffd399"/></svg>