<svg xmlns="http://www.w3.org/2000/svg" viewBox="0 0 496 496" opacity=".05"><path d="M280 480v-48h140.832l-97.712-88h83.176l-87.432-72h78.424L315 200h55.336l-86.456-93.112 8.896 4.448-11.704-40.352 31.544-28.736-44.832-10.544L248 1.344l-19.784 30.352-44.832 10.544 31.544 28.736-11.704 40.352 8.896-4.448L125.656 200h55.336l-82.288 72h78.424l-87.432 72h83.184l-97.712 88H216v48H32v16h432v-16H280zM238.12 45.808L248 30.656l9.88 15.16 21.504 5.056-16.456 14.992 4.296 14.808-14.344-7.176L248 68.24l-4.872 5.248-14.352 7.176 4.296-14.808-16.456-14.992 21.504-5.056zM116.832 416l97.72-88h-80.248l87.432-72h-80.44l82.288-72h-61.232L248 91.76 333.656 184h-61.232l82.288 72h-80.44l87.432 72h-80.256l97.712 88H116.832zM264 480h-32v-48h32v48z"/><path d="M272 152h16v16h-16zm-64 72h16v16h-16zm64 72h16v16h-16zm-72 80h16v16h-16zm280 104h16v16h-16zM0 480h16v16H0zM432 0h16v32h-16zm-37.23 22.066l11.314-11.314 22.628 22.628-11.314 11.313zM384 48h32v16h-32zm10.719 41.976l22.627-22.627 11.314 11.313-22.627 22.627zM432 80h16v32h-16zm19.33-1.369l11.314-11.314 22.627 22.628-11.313 11.313zM464 48h32v16h-32zm-12.719-14.552l22.627-22.627 11.314 11.313-22.627 22.627zM48 0h16v32H48zM10.748 22.058L22.06 10.744l22.627 22.627-11.313 11.314zM0 48h32v16H0zm10.746 41.95l22.627-22.628 11.314 11.314-22.628 22.627zM48 80h16v32H48zm19.313-1.382l11.314-11.314 22.627 22.628-11.314 11.313zM80 48h32v16H80zM67.314 33.376l22.627-22.627 11.314 11.313L78.628 44.69zM464 224h16v16h-16zm-16 16h16v16h-16zm16 16h16v16h-16zm16-16h16v16h-16zM16 352h16v16H16zM0 368h16v16H0zm16 16h16v16H16zm16-16h16v16H32zm48-176h16v16H80zm-16 16h16v16H64zm16 16h16v16H80zm16-16h16v16H96zm328 144h16v16h-16zm-16 16h16v16h-16zm16 16h16v16h-16zm16-16h16v16h-16z"/></svg>