<svg xmlns="http://www.w3.org/2000/svg" viewBox="0 0 512 512" opacity=".05"><path d="M454 36.154C454 21.709 442.291 10 427.846 10H208.154C193.709 10 182 21.709 182 36.154v385.692C182 436.291 193.709 448 208.154 448h219.692C442.291 448 454 436.291 454 421.846V36.154z" fill="#bbecff"/><path fill="#f1fbff" d="M182.94 64H454v319H182.94z"/><g fill="#fee0b0"><path d="M166.833 419h36.794a88.16 88.16 0 0 0 71.895-37.138l42.2-59.465c11.698-16.484-.088-39.302-20.302-39.302a24.89 24.89 0 0 0-14.872 4.931l-63.158 47.051a23.408 23.408 0 0 1-13.983 4.636c-12.927 0-23.406-10.479-23.406-23.406V304"/><path d="M182 416.236H86.988V304.43A246.447 246.447 0 0 1 182 110v306.236z"/></g><path d="M58 502h197.432v-73c0-5.523-4.477-10-10-10H68c-5.523 0-10 4.477-10 10v73z" fill="#fdba4f"/><path d="M363.117 248.667h-90.234c-5.72 0-10.652-4.02-11.805-9.622l-13.154-63.894c-1.539-7.477 4.172-14.483 11.805-14.483h116.543c7.634 0 13.345 7.007 11.805 14.483l-13.154 63.894a12.054 12.054 0 0 1-11.806 9.622z" fill="#c1ee92"/><path d="M208 455c-2.63 0-5.21 1.069-7.07 2.93S198 462.37 198 465s1.069 5.21 2.93 7.069c1.86 1.86 4.44 2.931 7.07 2.931s5.21-1.07 7.069-2.931C216.93 470.21 218 467.63 218 465s-1.07-5.21-2.931-7.07A10.067 10.067 0 0 0 208 455zM349.385 27.897h-62.77c-5.522 0-10 4.477-10 10s4.478 10 10 10h62.77c5.522 0 10-4.477 10-10s-4.478-10-10-10z"/><path d="M427.846 0H208.154C188.219 0 172 16.218 172 36.154v69.05c-28.865 23.407-52.662 53.255-68.974 86.634-17.035 34.859-26.039 73.793-26.039 112.592V409H68c-11.028 0-20 8.972-20 20v73c0 5.522 4.478 10 10 10s10-4.478 10-10v-73h177.432v73c0 5.522 4.478 10 10 10s10-4.478 10-10v-44h162.414C447.781 458 464 441.781 464 421.846V299.129c0-5.522-4.478-10-10-10s-10 4.478-10 10V373H294.074l31.803-44.814c7.586-10.689 8.562-24.563 2.546-36.209-6.016-11.646-17.895-18.881-31.003-18.881a35.13 35.13 0 0 0-20.847 6.911l-63.158 47.052a13.495 13.495 0 0 1-8.009 2.655c-7.393 0-13.406-6.014-13.406-13.406V76.042h252V216c0 5.523 4.478 10 10 10s10-4.477 10-10V36.154C464 16.218 447.781 0 427.846 0zM444 421.846c0 8.907-7.247 16.154-16.154 16.154H265.432v-9c0-6.565-3.194-12.384-8.094-16.032a98.073 98.073 0 0 0 22.264-19.988c.133.005.264.02.398.02h164v28.846zm-238.594-72.132a33.63 33.63 0 0 0 19.958-6.616l63.157-47.052a15 15 0 0 1 8.898-2.95c5.68 0 10.627 3.013 13.233 8.06 2.606 5.046 2.2 10.823-1.087 15.455l-42.199 59.464C252.735 396.691 228.907 409 203.627 409H96.987V304.43c0-66.307 27.1-128.175 75.013-172.776v184.654c0 18.42 14.986 33.406 33.406 33.406zM192 56.042V36.154C192 27.247 199.247 20 208.154 20h219.691C436.753 20 444 27.247 444 36.154v19.888H192z"/><path d="M318 424.649c2.63 0 5.21-1.06 7.069-2.93a10.059 10.059 0 0 0 2.931-7.07c0-2.63-1.07-5.21-2.931-7.069-1.859-1.86-4.439-2.931-7.069-2.931s-5.21 1.07-7.07 2.931a10.072 10.072 0 0 0-2.93 7.069c0 2.641 1.069 5.21 2.93 7.07a10.029 10.029 0 0 0 7.07 2.93zm-8.818-292.309c-4.785-2.762-10.897-1.123-13.66 3.66l-8.468 14.667h-27.325c-6.657 0-12.888 2.959-17.094 8.12s-5.849 11.859-4.507 18.38l13.155 63.896c2.102 10.201 11.186 17.604 21.6 17.604h90.234c10.414 0 19.498-7.403 21.601-17.605l13.154-63.895c1.342-6.521-.301-13.22-4.507-18.38s-10.437-8.12-17.094-8.12h-27.325L340.479 136c-2.761-4.783-8.877-6.421-13.66-3.66s-6.422 8.877-3.66 13.66l2.694 4.667h-15.705l2.694-4.667c2.762-4.783 1.123-10.899-3.66-13.66zm28.218 38.327l11.451 19.833a9.996 9.996 0 0 0 13.66 3.66c4.783-2.761 6.422-8.877 3.66-13.66l-5.677-9.833h15.778c.806 0 1.311.411 1.592.756.28.345.582.922.419 1.711l-13.153 63.893a2.062 2.062 0 0 1-2.012 1.641h-90.234c-.97 0-1.815-.69-2.011-1.639l-13.154-63.894a1.996 1.996 0 0 1 .419-1.711 1.996 1.996 0 0 1 1.592-.756h15.778l-5.677 9.833c-2.762 4.783-1.123 10.899 3.66 13.66a9.997 9.997 0 0 0 13.66-3.66l11.451-19.833 38.798-.001zM454 246c-2.63 0-5.21 1.07-7.07 2.93-1.86 1.86-2.93 4.44-2.93 7.07s1.069 5.21 2.93 7.069c1.86 1.86 4.44 2.931 7.07 2.931s5.21-1.07 7.069-2.931C462.93 261.21 464 258.63 464 256s-1.07-5.21-2.931-7.07A10.072 10.072 0 0 0 454 246z"/></svg>