<svg height="640" viewBox="0 0 480 480" width="640" xmlns="http://www.w3.org/2000/svg"><path d="M352 312h-32v-40h32zM224 168h32v40h-32zm-64 144h-32v-40h32zm0 0" fill="#d3843d"/><path d="M256 168s24-16 24-40-32-72-40-72-40 48-40 72 24 40 24 40zM128 312s-24 16-24 40 32 72 40 72 40-48 40-72-24-40-24-40zm192 0s-24 16-24 40 32 72 40 72 40-48 40-72-24-40-24-40zm0 0" fill="#fcf05a"/><path d="M8 219.246a16.307 16.307 0 0 0 6.621 13.29 16.314 16.314 0 0 0 14.652 2.41A56.873 56.873 0 0 1 48.047 232c48 0 48 48 96.043 48 48.039 0 48-48 96-48s48 48 96 48 48-48 96-48a56.974 56.974 0 0 1 18.734 2.938 16.26 16.26 0 0 0 14.578-2.426A16.258 16.258 0 0 0 472 219.289v-.09a16.434 16.434 0 0 0-12-15.847 104.15 104.15 0 0 0-28-3.368c-37.246 0-57.328 20.086-70.617 33.375C350.328 244.49 346.328 248 336.07 248c-10.254 0-14.254-3.512-25.375-14.625C297.406 220.09 277.328 200 240.062 200c-37.261 0-57.328 20.09-70.613 33.375C158.336 244.488 154.336 248 144.09 248c-10.25 0-14.28-3.512-25.402-14.633C105.391 220.078 85.305 200 48.04 200c-9.441-.148-18.86.98-28 3.36A16.48 16.48 0 0 0 8 219.245zM243.871 144a7.998 7.998 0 0 1-6.094-13.168 17.127 17.127 0 0 0 2.125-3.023 73.002 73.002 0 0 0-6.988-16.688 7.999 7.999 0 1 1 14.156-7.441 73.327 73.327 0 0 1 8.922 24 21.07 21.07 0 0 1-6.008 13.465 8.004 8.004 0 0 1-6.113 2.855zM144 380.602a8.005 8.005 0 0 1-7.086-4.282 73.327 73.327 0 0 1-8.922-24A21.07 21.07 0 0 1 134 338.855a8.002 8.002 0 0 1 13.77 2.383 7.995 7.995 0 0 1-1.563 7.953 17.127 17.127 0 0 0-2.125 3.024 73.002 73.002 0 0 0 6.988 16.687 8.001 8.001 0 0 1-7.07 11.7zm192 0a8.005 8.005 0 0 1-7.086-4.282 73.327 73.327 0 0 1-8.922-24A21.07 21.07 0 0 1 326 338.855a8.002 8.002 0 0 1 13.77 2.383 7.995 7.995 0 0 1-1.563 7.953 17.127 17.127 0 0 0-2.125 3.024 73.002 73.002 0 0 0 6.988 16.687 8.001 8.001 0 0 1-7.07 11.7zM240 32a8 8 0 0 1-8-8V8a8 8 0 0 1 16 0v16a8 8 0 0 1-8 8zm-48 32a8.001 8.001 0 0 1-5.656-2.344l-16-16a8 8 0 0 1 11.312-11.312l16 16A8 8 0 0 1 192 64zm96 0c-3.234 0-6.152-1.95-7.39-4.938s-.551-6.43 1.734-8.718l16-16a8 8 0 1 1 11.312 11.312l-16 16A8.001 8.001 0 0 1 288 64zm-120 56h-16a8 8 0 0 1 0-16h16a8 8 0 0 1 0 16zm160 0h-16a8 8 0 0 1 0-16h16a8 8 0 0 1 0 16zM144 480a8 8 0 0 1-8-8v-16a8 8 0 0 1 16 0v16a8 8 0 0 1-8 8zm64-40a8.001 8.001 0 0 1-5.656-2.344l-16-16a8 8 0 0 1 11.312-11.312l16 16A8 8 0 0 1 208 440zm-128 0c-3.234 0-6.152-1.95-7.39-4.938s-.551-6.43 1.734-8.718l16-16a8 8 0 0 1 11.312 11.312l-16 16A8.001 8.001 0 0 1 80 440zm-8-72H56a8 8 0 0 1 0-16h16a8 8 0 0 1 0 16zm264 112a8 8 0 0 1-8-8v-16a8 8 0 0 1 16 0v16a8 8 0 0 1-8 8zm64-40a8.001 8.001 0 0 1-5.656-2.344l-16-16a8 8 0 0 1 11.312-11.312l16 16A8 8 0 0 1 400 440zm-128 0c-3.234 0-6.152-1.95-7.39-4.938s-.551-6.43 1.734-8.718l16-16a8 8 0 0 1 11.312 11.312l-16 16A8.001 8.001 0 0 1 272 440zm152-72h-16a8 8 0 0 1 0-16h16a8 8 0 0 1 0 16zm0 0" fill="#fdbd40"/><path d="M462.176 195.672a110.899 110.899 0 0 0-30.13-3.672c-40.558 0-62.91 22.398-76.269 35.719C344.648 238.848 342.801 240 336.07 240c-6.726 0-8.574-1.152-19.726-12.29A110.084 110.084 0 0 0 264 194.896V172c7.457-6.016 24-21.832 24-44 0-27.504-34.047-80-48-80s-48 52.496-48 80c0 22.145 16.543 37.96 24 44v22.953a110.08 110.08 0 0 0-52.207 32.8C152.664 238.849 150.816 240 144.09 240c-6.73 0-8.715-1.266-19.746-12.29C110.984 214.353 88.625 192 48.039 192a111.283 111.283 0 0 0-30.16 3.656c-9.098 2.57-15.91 10.137-17.52 19.453s2.27 18.727 9.977 24.203a23.502 23.502 0 0 0 21.535 3.2A49.319 49.319 0 0 1 48.04 240c20.703 0 30.746 10.04 42.402 21.656A89 89 0 0 0 120 283.512V308c-7.457 6.016-24 21.832-24 44 0 27.504 34.047 80 48 80s48-52.496 48-80c0-22.145-16.543-37.96-24-44v-24.434a88.537 88.537 0 0 0 29.734-21.91C209.352 250.04 219.383 240 240.062 240s30.731 10.04 42.356 21.656A88.797 88.797 0 0 0 312 283.512V308c-7.457 6.016-24 21.832-24 44 0 27.504 34.047 80 48 80s48-52.496 48-80c0-22.145-16.543-37.96-24-44v-24.441a88.456 88.456 0 0 0 29.719-21.903C401.336 250.04 411.367 240 432.047 240a49.12 49.12 0 0 1 16.137 2.496 23.406 23.406 0 0 0 21.488-3.2 24.569 24.569 0 0 0-7.496-43.64zM208 128c0-18.184 22.895-54.36 32-62.855 9.105 8.496 32 44.671 32 62.855 0 15.848-13.602 28.055-18.64 32h-26.72c-5.038-3.945-18.64-16.152-18.64-32zm24 48h16v16.313c-2.566-.192-5.2-.313-7.938-.313-2.734 0-5.453.129-8.062.328zm-56 176c0 18.184-22.895 54.398-32 62.855-9.105-8.457-32-44.671-32-62.855 0-15.848 13.602-28.055 18.64-32h26.72c5.038 3.945 18.64 16.152 18.64 32zm-24-48h-16v-16.527a69.97 69.97 0 0 0 8.09.527 71.386 71.386 0 0 0 7.91-.512zm216 48c0 18.184-22.895 54.398-32 62.855-9.105-8.457-32-44.671-32-62.855 0-15.848 13.602-28.055 18.64-32h26.72c5.038 3.945 18.64 16.152 18.64 32zm-24-48h-16v-16.52a62.318 62.318 0 0 0 16 0zm116.375-77.71a7.622 7.622 0 0 1-6.984 1.085A64.54 64.54 0 0 0 432.047 224c-27.305 0-41.293 13.992-53.598 26.344C366.793 261.96 356.754 272 336.07 272c-20.68 0-30.726-10.04-42.343-21.656C281.375 237.992 267.383 224 240.062 224s-41.292 13.992-53.636 26.344C174.809 261.96 164.8 272 144.09 272c-20.715 0-30.746-10.04-42.403-21.656C89.367 237.992 75.367 224 48.04 224a65.102 65.102 0 0 0-21.367 3.375 7.626 7.626 0 0 1-7.031-1.086A8.677 8.677 0 0 1 16 219.246a8.505 8.505 0 0 1 6.176-8.184A97.531 97.531 0 0 1 48.039 208c33.961 0 51.898 17.93 64.992 31.023C124.801 250.801 130.586 256 144.09 256s19.246-5.2 31.015-16.969C188.2 225.937 206.13 208 240.062 208c33.938 0 51.883 17.93 64.977 31.031C316.801 250.801 322.586 256 336.07 256c13.489 0 19.258-5.2 31.02-16.969C380.184 225.937 398.113 208 432.047 208a96.84 96.84 0 0 1 25.816 3.078 8.477 8.477 0 0 1 6.137 8.203 8.629 8.629 0 0 1-3.625 7.008zm0 0"/><path d="M239.902 127.809a17.127 17.127 0 0 1-2.125 3.023 7.995 7.995 0 0 0-1.562 7.953 7.985 7.985 0 0 0 6.183 5.235 7.993 7.993 0 0 0 7.586-2.852A21.06 21.06 0 0 0 256 127.703a73.407 73.407 0 0 0-8.918-24 7.998 7.998 0 1 0-13.965-.664 7.999 7.999 0 0 0-.195 8.106 72.978 72.978 0 0 1 6.98 16.664zm-95.804 224.382a17.334 17.334 0 0 1 2.125-3.023 7.996 7.996 0 1 0-4.621-13.188 7.993 7.993 0 0 0-7.586 2.852A21.06 21.06 0 0 0 128 352.297a73.327 73.327 0 0 0 8.922 24 7.994 7.994 0 0 0 7.086 4.277c2.8 0 5.394-1.469 6.84-3.863a8.009 8.009 0 0 0 .234-7.856 72.816 72.816 0 0 1-6.984-16.664zm192 0a17.334 17.334 0 0 1 2.125-3.023 7.996 7.996 0 1 0-4.621-13.188 7.993 7.993 0 0 0-7.586 2.852A21.06 21.06 0 0 0 320 352.297a73.327 73.327 0 0 0 8.922 24 7.994 7.994 0 0 0 7.086 4.277c2.8 0 5.394-1.469 6.84-3.863a8.009 8.009 0 0 0 .234-7.856 72.816 72.816 0 0 1-6.984-16.664zM248 24V8a8 8 0 0 0-16 0v16a8 8 0 0 0 16 0zm-56 40a8 8 0 0 0 5.656-13.656l-16-16a8 8 0 0 0-11.312 11.312l16 16A8.001 8.001 0 0 0 192 64zm117.656-29.656a8.004 8.004 0 0 0-11.312 0l-16 16a8 8 0 1 0 11.312 11.312l16-16a8.004 8.004 0 0 0 0-11.312zM152 104a8 8 0 0 0 0 16h16a8 8 0 0 0 0-16zm160 16h16a8 8 0 0 0 0-16h-16a8 8 0 0 0 0 16zM144 448a8 8 0 0 0-8 8v16a8 8 0 0 0 16 0v-16a8 8 0 0 0-8-8zm53.656-37.656a8 8 0 0 0-11.312 11.312l16 16a8 8 0 0 0 11.312-11.312zm-107.312 0l-16 16a8 8 0 1 0 11.312 11.312l16-16a8 8 0 0 0-11.312-11.312zM80 360a8 8 0 0 0-8-8H56a8 8 0 0 0 0 16h16a8 8 0 0 0 8-8zm256 88a8 8 0 0 0-8 8v16a8 8 0 0 0 16 0v-16a8 8 0 0 0-8-8zm53.656-37.656a8 8 0 0 0-11.312 11.312l16 16a8 8 0 0 0 11.312-11.312zm-107.312 0l-16 16a8 8 0 1 0 11.312 11.312l16-16a8 8 0 0 0-11.312-11.312zM424 352h-16a8 8 0 0 0 0 16h16a8 8 0 0 0 0-16zm0 0"/></svg>