<svg height="511pt" viewBox="-14 1 511 511.999" width="511pt" xmlns="http://www.w3.org/2000/svg"><path d="M244.285 114.11l-43.289 22.078-52.18-22.079c-16.355-49.082-31.34-88.48-9.691-101.296C160.762 0 169.91 41.011 169.91 41.011s-.105-5.38 1.055-12.23C173.023 16.698 179.027 0 196.55 0c27.465 0 26.629 41.012 26.629 41.012s9.16-41.012 30.797-28.2c21.64 12.817 6.664 52.215-9.692 101.297zm148.313 292.706c0-108.277-87.774-242.226-196.051-242.226C88.273 164.59.5 298.54.5 406.816c0 108.274 87.773 104.657 196.047 104.657 108.277 0 196.05 3.617 196.05-104.657zm0 0" fill="#ef5361"/><path d="M184.762 511.48C81.98 511.586.504 511.137.504 406.82c0-108.273 87.773-242.226 196.047-242.226-53.332 0-96.555 133.953-96.555 242.226 0 100.168 37 104.567 84.766 104.66zm-2.664-397.37h-33.282c-16.355-49.083-31.34-88.481-9.691-101.297C160.762 0 169.91 41.011 169.91 41.011s3.04 39.972 12.188 73.097zm0 0" fill="#dc4250"/><path d="M259.543 135.133v21.898c0 11.614-9.41 21.035-21.02 21.035h-83.941c-11.613 0-21.035-9.421-21.035-21.035v-21.898c0-11.613 9.422-21.024 21.035-21.024h83.941c11.61 0 21.02 9.41 21.02 21.024zm0 0" fill="#4588b5"/><path d="M259.543 135.133v21.898c0 11.614-9.41 21.035-21.02 21.035H196.52c-11.614 0-21.024-9.421-21.024-21.035v-21.898c0-11.613 9.41-21.024 21.024-21.024h42.003c11.61 0 21.02 9.41 21.02 21.024zm0 0" fill="#6b9dc6"/><path d="M415.07 205.95c-27.898 0-50.511 22.613-50.511 50.51v50.517h50.511c27.899 0 50.512-22.618 50.512-50.516 0-27.899-22.613-50.512-50.512-50.512zm0 0" fill="#ffe66b"/><path d="M314.043 205.95c27.898 0 50.516 22.613 50.516 50.51v50.517h-50.516c-27.895 0-50.512-22.618-50.512-50.516 0-27.899 22.617-50.512 50.512-50.512zm0 0" fill="#ffe66b"/><path d="M394.012 248.063c-16.266 0-29.453 13.187-29.453 29.457v29.457h29.453c16.27 0 29.457-13.188 29.457-29.457s-13.188-29.457-29.457-29.457zm-58.91 0c16.27 0 29.457 13.187 29.457 29.457v29.457h-29.457c-16.266 0-29.454-13.188-29.454-29.457s13.188-29.457 29.454-29.457zm0 0" fill="#f79e31"/><path d="M464.516 386.156V494.66c0 9.574-7.758 17.34-17.336 17.34H281.937c-9.578 0-17.34-7.766-17.34-17.34V386.156zm0 0" fill="#6b9dc6"/><path d="M264.598 376.832h199.918v32.707H264.598zm0 0" fill="#4588b5"/><path d="M464.848 386.156H264.266c-9.993 0-18.09-8.097-18.09-18.09v-43.52c0-9.991 8.097-18.093 18.09-18.093h200.582c9.992 0 18.09 8.102 18.09 18.094v43.52c0 9.992-8.098 18.09-18.09 18.09zm0 0" fill="#6b9dc6"/><path d="M341.098 306.453h46.914v205.258h-46.914zm0 0" fill="#ffe66b"/><path d="M341.098 386.156h46.914v32.89h-46.914zm0 0" fill="#f79e31"/></svg>