<svg height="511pt" viewBox="1 0 511.999 511" width="511pt" xmlns="http://www.w3.org/2000/svg" opacity=".05"><path d="M51.016 395.23H93.44v82.168H51.016zm208.089 0h42.426v82.168h-42.426zm0 0" fill="#7f4a26"/><path d="M99.5 71.988h157.582v137.38H99.5zm0 0" fill="#6b9dc6"/><path d="M67.176 177.16H305.57v183.828H67.176zm0 0" fill="#ffcf47"/><path d="M345.836 503.547H9.457V463.14h336.379c26.453 0 57.11-10.192 82.012-27.266 21.972-15.07 36.172-33.707 36.172-47.484h40.406c0 27.937-19.586 57.39-53.73 80.804-31.833 21.832-70.055 34.352-104.86 34.352zm0 0" fill="#935d35"/><path d="M243.953 360.988H67.176V216.395H99.5c42.398 0 76.773 34.375 76.773 76.773v19.312h19.172c26.79 0 48.508 21.72 48.508 48.508zm0 0" fill="#f7bc31"/><path d="M211.629 360.984c0-26.789-21.715-48.507-48.504-48.507h-19.176v-19.309c0-42.398-34.37-76.77-76.773-76.77H7.574v193.09h319.207c13.395 0 24.254-10.86 24.254-24.254s-10.86-24.254-24.254-24.254H211.63zm0 0" fill="#ef5361"/><path d="M102.531 288.273c0 18.97-15.375 34.344-34.344 34.344s-34.343-15.375-34.343-34.344 15.375-34.343 34.343-34.343 34.344 15.375 34.344 34.343zm76.266 70.75c0 9.485-7.688 17.172-17.172 17.172s-17.172-7.687-17.172-17.172c0-9.484 7.688-17.171 17.172-17.171s17.172 7.687 17.172 17.171zm0 0" fill="#dc4250"/><path d="M160.11 71.988h36.367v105.168h-36.368zm50.14-63.91c-17.648 0-31.957 14.305-31.957 31.953v31.957h31.957c17.648 0 31.953-14.308 31.953-31.957S227.898 8.078 210.25 8.078zm-63.91 0c17.644 0 31.953 14.305 31.953 31.953v31.957H146.34c-17.649 0-31.957-14.308-31.957-31.957S128.688 8.078 146.34 8.078zm0 0" fill="#ffcf47"/><path d="M504.426 380.816H464.02a7.577 7.577 0 0 0-7.579 7.575c0 11.004-13.52 27.957-32.879 41.234-23.687 16.242-52.746 25.941-77.726 25.941h-36.73v-38.5h17.675c17.551 0 31.828-14.28 31.828-31.832s-14.277-31.828-31.828-31.828h-13.633V237.648a7.577 7.577 0 0 0-15.152 0v115.758h-53.539V184.738h53.54v22.606a7.577 7.577 0 0 0 15.152 0V177.16a7.577 7.577 0 0 0-7.579-7.574h-40.91V71.984a7.574 7.574 0 0 0-7.578-7.574h-15.75c5.285-6.722 8.45-15.183 8.45-24.379C249.781 18.234 232.046.5 210.25.5c-13.121 0-24.762 6.43-31.957 16.297C171.098 6.93 159.457.5 146.34.5c-21.8 0-39.535 17.734-39.535 39.531 0 9.196 3.164 17.657 8.449 24.38H99.5a7.574 7.574 0 0 0-7.574 7.573v97.602h-24.75a7.574 7.574 0 0 0-7.574 7.574v31.664H7.574A7.574 7.574 0 0 0 0 216.398v193.09a7.577 7.577 0 0 0 7.574 7.578h35.864v38.5H9.457a7.577 7.577 0 0 0-7.578 7.575v40.406a7.577 7.577 0 0 0 7.578 7.574h83.98a7.577 7.577 0 1 0 0-15.152H17.032v-25.25h328.801c27.926 0 60.184-10.692 86.297-28.598 20.726-14.215 34.77-31.25 38.484-46.156h25.7c-3.235 23.148-21.016 47.176-49.903 66.984-30.601 20.985-67.262 33.02-100.578 33.02H123.746c-4.187 0-7.578 3.394-7.578 7.578s3.39 7.574 7.578 7.574h222.086c36.3 0 76.082-13.004 109.148-35.676 36.24-24.847 57.02-56.578 57.02-87.054a7.574 7.574 0 0 0-7.574-7.575zM167.688 79.563h21.21v90.019h-21.21zm81.82 90.019H204.05v-90.02h45.457zM210.25 15.652c13.441 0 24.379 10.938 24.379 24.38S223.69 64.41 210.25 64.41h-24.383V40.031c0-13.441 10.938-24.379 24.383-24.379zm-88.293 24.38c0-13.442 10.938-24.38 24.383-24.38 13.441 0 24.379 10.938 24.379 24.38V64.41h-24.38c-13.444 0-24.382-10.937-24.382-24.379zm-14.879 39.53h45.457v90.02h-45.457zm122.227 105.176v168.668h-10.606c-3.71-27.351-27.219-48.504-55.574-48.504h-11.602v-11.734c0-43.953-33.8-80.14-76.77-83.988v-24.442zM15.152 223.977h52.024c38.156 0 69.195 31.039 69.195 69.191v19.309a7.577 7.577 0 0 0 7.578 7.574h19.176c22.555 0 40.906 18.34 40.93 40.89 0 .016-.004.032-.004.047a7.577 7.577 0 0 0 7.578 7.574h93.941l21.211-.003c9.196 0 16.68 7.48 16.68 16.68 0 9.195-7.484 16.675-16.68 16.675H15.152zm236.375 193.09v38.5H101.016v-38.5zm-192.937 38.5v-38.5h27.273v38.5zm208.09 0v-38.5h27.273v38.5zm0 0"/><path d="M110.11 288.273c0-23.113-18.81-41.921-41.922-41.921s-41.922 18.808-41.922 41.921c0 23.114 18.808 41.922 41.922 41.922s41.921-18.804 41.921-41.922zm-68.692 0c0-14.761 12.008-26.77 26.77-26.77s26.769 12.009 26.769 26.77c0 14.762-12.008 26.77-26.77 26.77s-26.769-12.008-26.769-26.77zm120.207 95.5c13.645 0 24.746-11.105 24.746-24.75 0-13.644-11.101-24.75-24.746-24.75s-24.75 11.106-24.75 24.75c0 13.645 11.105 24.75 24.75 24.75zm0-34.347c5.29 0 9.598 4.308 9.598 9.597 0 5.293-4.309 9.598-9.598 9.598-5.293 0-9.598-4.305-9.598-9.598 0-5.289 4.305-9.597 9.598-9.597zm0 0"/></svg>