<svg xmlns="http://www.w3.org/2000/svg"><symbol id="christmas_tree" viewBox="0 0 80 80"><path fill="#95AD3D" d="M59.322 53.496l-.516-.429V48.5H21.653v4.023c-.054-.01-.113-.015-.166-.025l-1.2.999a59.617 59.617 0 0 1-11.84 7.634c1.754 3.284 3.574 4.888 5.534 4.888 1.261 0 2.708-.64 4.3-1.901l3.86-3.058c-.839-.738.909.702.235.193l-1.067 4.766c-.035.833 1.248 2.996 2.068 4.149 3.184-.54 7.006-2.92 8.266-4.254l2.019-2.132 1.116 2.716c1.52 3.714 3.86 5.459 5.027 6.003 1.166-.545 3.505-2.29 5.027-6.003l1.113-2.717 2.02 2.133c1.246 1.318 5.604 3.514 8.844 4.114.79-1.202 1.386-3.2 1.459-4.162l-.802-3.908a4 4 0 0 1-.923.117c-2.218 0 3.125-1.127 1.826-.459l3.005 2.54c1.591 1.343 3.032 2.025 4.285 2.026 1.908 0 3.716-1.656 5.506-5.05a59.599 59.599 0 0 1-11.843-7.635z"/><path fill="#92A53B" d="M56.309 42.184l-1.334-1.101c-.103.004-.204.013-.308.017v-5.578h-29.29v5.64l-.996.829c-2.307 1.923-5.485 4.31-8.528 5.738.501 1.147 1.375 2.611 2.78 3.411l1.557.887c1.307.276 2.695.252 3.845-.138 1.5-.505 2.815-1.244 3.694-1.809-.962-.806 5.267.988 2.882 1.032 1.092 2.571 2.34 4.724 2.88 4.847.735-.033 3.58-3.054 6.183-6.6l.557-.757.556.757c2.603 3.546 5.447 6.567 6.21 6.596.527-.124 1.818-2.367 2.925-5.014-1.85-.516 0 .03 2.245.03.057.09.097.175.176.269.55.656 1.791 1.487 4.58 1.715 1.06.073 2.594-.575 3.879-1.23l1.025-.585c1.403-.8 2.278-2.264 2.78-3.411-2.966-1.393-6.054-3.694-8.298-5.545z"/><path fill="#9CB24B" d="M33.306 29.695l.313-.151c.18.01.358.027.542.027.393 0 .807-.025 1.314-.085.213 0 .417.196.702.534-.492.702 7.653 1.01 7.308.39.244-.324.463-.647.656-.934l.08-.118.468.062c.81.102 1.56.112 2.274.069l1.562 1.414c.242.217 5.324 4.787 10.281 7.06-.49 1.117-1.34 2.537-2.69 3.325l-1.518.887c-.144.009-.284.023-.434.023-.865 0-1.803-.145-2.79-.43-2.055-.595-4.179-1.775-5.085-2.278l-.227-.126a.678.678 0 0 0-.879.2c-.096.134-.304.5-.584 1.001-2.617 4.681-3.598 5.455-3.953 5.492-.957-.244-4.154-4.865-5.011-6.33a.678.678 0 0 0-1.114-.25c-.317.223-2.137 1.273-5.38 2.296a6.206 6.206 0 0 1-1.858.299c-.445 0-.865-.061-1.27-.156l-1.961-.854a8.486 8.486 0 0 1-1.394-1.154c-.403-.55-.741-1.224-1.005-1.921 3.766-1.747 8.754-5.824 11.654-8.292z"/><path fill="#AAC65A" d="M37.707 21.63c.638.156 1.396.262 2.298.262.933 0 1.677-.154 2.272-.386l8.99 7.52c-.19.55-.582 1.218-1.389 1.595l-.939.437c-1.045.252-2.25.315-3.624.14l-.947-.126a.737.737 0 0 0-.706.3c-.109.15-.23.33-.364.53-.13.193-.282.413-.443.64a4.695 4.695 0 0 0-3.165-1.24 4.685 4.685 0 0 0-2.828.962c-.52-.595-1.124-1.104-2.075-.987-.984.122-1.866.087-2.678-.076l-1.638-.858c-.948-.653-1.293-1.06-1.52-1.43l8.756-7.282z"/><path fill="#D8A93D" d="M38.708 17.364l-2.267 5.028s1.773 1.243 3.754 1.243 3.5-1.243 3.5-1.243l-2.635-5.028h-2.352z"/><path fill="#FAC746" d="M50.325 10.488l-7.216-.975-3.288-6.497-3.157 6.561-7.194 1.12 5.264 5.029-1.159 7.188 6.411-3.452 6.479 3.324-1.303-7.164z"/><circle fill="#EB5947" cx="39.488" cy="33.499" r="4.012"/><circle fill="#EB5947" cx="29.47" cy="50.07" r="4.012"/><circle fill="#EB5947" cx="51.267" cy="50.07" r="4.012"/><circle fill="#EB5947" cx="57.434" cy="61.45" r="4.012"/><circle fill="#EB5947" cx="21.653" cy="61.45" r="4.012"/><circle fill="#EB5947" cx="40.23" cy="59.818" r="4.012"/><circle fill="#FAC746" cx="29.833" cy="38.333" r="1.667"/><circle fill="#FAC746" cx="50.325" cy="38.333" r="1.667"/><circle fill="#FAC746" cx="43.696" cy="44.074" r="1.667"/><circle fill="#FAC746" cx="37.142" cy="44.074" r="1.667"/><circle fill="#FAC746" cx="40.23" cy="51.737" r="1.667"/><circle fill="#FAC746" cx="30.618" cy="59.104" r="1.667"/><circle fill="#FAC746" cx="48.922" cy="59.104" r="1.667"/><circle fill="#FAC746" cx="48.922" cy="67.129" r="1.667"/><circle fill="#FAC746" cx="21.653" cy="52.522" r="1.667"/><circle fill="#FAC746" cx="58.475" cy="52.522" r="1.667"/></symbol><symbol id="slider-button" viewBox="0 0 501.5 501.5"><path fill="#2E435A" d="M199.33 410.622l-55.77-55.508L247.425 250.75 143.56 146.384l55.77-55.507L358.44 250.75z"/></symbol></svg>