<svg height="511pt" viewBox="-64 1 511 512" width="511pt" xmlns="http://www.w3.org/2000/svg"><path d="M244.254 500.04a121.573 121.573 0 0 1-52.59 11.96c-3.777 0-7.566-.18-11.336-.535a121.264 121.264 0 0 1-41.254-11.426l6.98-40.23 61.313-36.075 29.906 36.075 3.278 18.878zm0 0" fill="#7f4a26"/><path d="M347.121 448.18c-4.125.68-8.258 1.34-12.402 1.957l-39.801-51.5v56.68c-62.367 6.773-125.566 7.378-188.09 1.824a946.142 946.142 0 0 1-70.621-8.961c-31.125-5.16-45.766-32.957-28.102-53.49a4484.413 4484.413 0 0 0 43.915-51.836 4181.134 4181.134 0 0 0 27.011-32.664l1.059-1.664 62.562-98.261 161.641 99.933a4470.883 4470.883 0 0 0 25.684 31.074 4646.938 4646.938 0 0 0 45.242 53.418c17.668 20.532 3.035 48.329-28.098 53.489zm0 0" fill="#4dc168"/><path d="M329.977 341.273c-2.93 1.16-6.122 2.051-9.555 2.618-86.895 14.379-176.742 14.379-263.64 0a47.668 47.668 0 0 1-4.762-1.036 4181.134 4181.134 0 0 0 27.011-32.664l63.621-99.925 161.641 99.933a4470.883 4470.883 0 0 0 25.684 31.074zm0 0" fill="#3dad52"/><path d="M323.488 307.262c-57.058 9.437-115.383 12.683-173.308 9.73l-15.375-61.21-19.79 58.636a797.522 797.522 0 0 1-55.167-7.156c-26.395-4.367-38.805-27.934-23.828-45.348a3934.157 3934.157 0 0 0 54.953-65.328 3384.662 3384.662 0 0 0 14.714-18.012c3.489-4.281 6.973-8.594 10.458-12.926l63.945-63.945 87.105 63.945a3931.406 3931.406 0 0 0 25.16 30.938 3934.157 3934.157 0 0 0 54.954 65.328c14.976 17.414 2.574 40.98-23.82 45.348zm0 0" fill="#4dc168"/><g fill="#3dad52"><path d="M292.355 196.586c-66.386 10.906-135.007 10.894-201.382 0a3762.304 3762.304 0 0 0 25.172-30.938l63.945-63.945 87.105 63.945a3931.406 3931.406 0 0 0 25.16 30.938zm0 0"/><path d="M155.21 194.566l-52.65 118.575c-18.48-1.75-24.438-2.856-42.711-5.88-26.395-4.366-38.805-27.933-23.828-45.347a3934.157 3934.157 0 0 0 54.953-65.328 3434.607 3434.607 0 0 0 14.715-18.012zm0 0"/><path d="M106.797 457.129c.012 0 .02.012.031.012a946.142 946.142 0 0 1-70.621-8.961c-31.125-5.16-45.766-32.957-28.102-53.49a4484.413 4484.413 0 0 0 43.915-51.836 4181.134 4181.134 0 0 0 27.011-32.664l1.059-1.664 51.574 28.883s-98.398 98.16-24.867 119.719zm0 0"/></g><path d="M293.21 161.914c-47.167 7.805-95.476 10.121-143.315 6.906-.02 0-.043 0-.075-.011a246.6 246.6 0 0 1-5.617-.395h-.023a72.436 72.436 0 0 1-2.051-.16c-.012 0-.02 0-.031-.008a613.65 613.65 0 0 1-51.973-6.332c-20.336-3.36-29.898-21.52-18.355-34.934a2960.121 2960.121 0 0 0 94.777-115.972C171.832 4.184 180.62.523 189.645.05c10.37-.535 21.054 3.11 27.148 10.957a2949.536 2949.536 0 0 0 94.766 115.972c11.543 13.415 1.976 31.575-18.348 34.934zm0 0" fill="#4dc168"/><path d="M189.645.05v.012s-96.223 162.102-47.547 168.184a613.65 613.65 0 0 1-51.973-6.332c-20.336-3.36-29.898-21.52-18.355-34.934a2960.121 2960.121 0 0 0 94.777-115.972C171.832 4.184 180.62.523 189.645.05zm0 0" fill="#3dad52"/><path d="M244.254 500.04a121.573 121.573 0 0 1-52.59 11.96c-3.777 0-7.566-.18-11.336-.535v-32.777h60.223zm0 0" fill="#935d35"/><path d="M144.203 168.414a67.9 67.9 0 0 1 5.617.395 246.6 246.6 0 0 1-5.617-.395zm0 0" fill="#3dad52"/></svg>