<svg xmlns="http://www.w3.org/2000/svg" viewBox="0 0 499.2 499.2" opacity=".2"><path d="M249.6 0C126.4 0 27.2 100 27.2 222.4c0 123.2 99.2 222.4 222.4 222.4S472 344.8 472 222.4 372.8 0 249.6 0zm0 364.8c-78.4 0-142.4-64-142.4-142.4S171.2 80 249.6 80 392 144 392 222.4s-64 142.4-142.4 142.4z" fill="#0d9b2e"/><path d="M27.2 222.4c0 123.2 99.2 222.4 222.4 222.4S472 344.8 472 222.4 372.8 0 249.6 0m0 364.8c-78.4 0-142.4-64-142.4-142.4S171.2 80 249.6 80 392 144 392 222.4s-64 142.4-142.4 142.4z" fill="#0a7c38"/><path d="M249.6 0v80.8c80 .8 140.8 64 140.8 142.4 0 77.6-60.8 140.8-140.8 142.4v80.8c120-.8 220.8-100 220.8-222.4C470.4 100 369.6.8 249.6 0z" fill="#036632"/><path d="M89.6 7.2c-8 7.2-19.2 22.4-19.2 40s11.2 32.8 19.2 40v-80z" fill="#0d9b2e"/><path d="M89.6 7.2c16 7.2 19.2 22.4 19.2 40s-3.2 32.8-19.2 40v-80z" fill="#0a7c38"/><path d="M132.8 255.2c3.2-12.8-2.4-29.6-14.4-42.4-12.8-12.8-28.8-17.6-42.4-14.4l56.8 56.8z" fill="#0d9b2e"/><path d="M132.8 255.2c-12.8 3.2-29.6-1.6-42.4-14.4C77.6 228 72.8 212 76 198.4l56.8 56.8z" fill="#0a7c38"/><path d="M70.4 130.4c-12.8-3.2-29.6 2.4-42.4 14.4-12.8 12.8-17.6 28.8-14.4 42.4l56.8-56.8z" fill="#0d9b2e"/><path d="M70.4 130.4c3.2 12.8-1.6 29.6-14.4 42.4s-28.8 17.6-42.4 14.4l56.8-56.8z" fill="#0a7c38"/><path d="M90.4 280.8c-12.8-3.2-29.6 2.4-42.4 14.4-12 12.8-17.6 29.6-14.4 42.4l56.8-56.8z" fill="#0d9b2e"/><path d="M90.4 280.8c3.2 12.8-1.6 29.6-14.4 42.4-12.8 12-28.8 17.6-42.4 14.4l56.8-56.8z" fill="#0a7c38"/><path d="M72 254.4c-12.8-3.2-29.6 1.6-42.4 14.4S12 297.6 15.2 311.2L72 254.4z" fill="#0d9b2e"/><path d="M72 254.4c3.2 12.8-2.4 29.6-14.4 42.4-12.8 12.8-28.8 17.6-42.4 14.4L72 254.4z" fill="#0a7c38"/><path d="M89.6 238.4c-7.2-11.2-22.4-19.2-40-19.2s-32.8 8-40 19.2h80z" fill="#0d9b2e"/><path d="M89.6 238.4c-7.2 11.2-22.4 19.2-40 19.2s-32.8-8-40-19.2h80z" fill="#0a7c38"/><path d="M129.6 11.2c-8 7.2-19.2 22.4-19.2 40s11.2 32.8 19.2 40v-80z" fill="#0d9b2e"/><path d="M129.6 11.2c8 7.2 19.2 22.4 19.2 40s-11.2 32.8-19.2 40v-80z" fill="#0a7c38"/><path d="M45.6 64C44 72 48 81.6 56 89.6c8 7.2 18.4 10.4 26.4 8L45.6 64z" fill="#0d9b2e"/><path d="M45.6 64c8-2.4 18.4.8 26.4 8s11.2 17.6 9.6 25.6L45.6 64zm-40 146.4c4.8 7.2 14.4 11.2 24.8 11.2 11.2 0 20-5.6 24-12.8l-48.8 1.6z" fill="#0a7c38"/><path d="M5.6 210.4c4-7.2 13.6-12.8 24-12.8 11.2 0 20.8 4 24.8 11.2l-48.8 1.6zm148-48.8c-4.8-7.2-14.4-11.2-24.8-11.2-11.2 0-20 5.6-24 12.8l48.8-1.6z" fill="#0d9b2e"/><path d="M153.6 161.6c-4 7.2-13.6 12.8-24 12.8-11.2 0-20.8-4-24.8-11.2l48.8-1.6zM172 311.2c1.6-8-1.6-18.4-9.6-25.6s-18.4-10.4-26.4-8l36 33.6z" fill="#0a7c38"/><path d="M172 311.2c-8 2.4-18.4-.8-26.4-8s-11.2-17.6-9.6-25.6l36 33.6zM59.2 121.6c-4.8-7.2-14.4-11.2-24.8-11.2-11.2 0-20 5.6-24 12.8l48.8-1.6z" fill="#0d9b2e"/><path d="M59.2 121.6c-4 7.2-13.6 12.8-24 12.8-11.2 0-20.8-4-24.8-11.2l48.8-1.6z" fill="#0a7c38"/><path d="M35.2 28.8c-.8 4 1.6 9.6 5.6 13.6s9.6 5.6 13.6 4L35.2 28.8z" fill="#0d9b2e"/><path d="M35.2 28.8c4-.8 9.6 0 13.6 4s6.4 8.8 4.8 13.6L35.2 28.8z" fill="#0a7c38"/><g fill="#0d9b2e"><path d="M45.6 90.4c-2.4-4-7.2-6.4-12.8-5.6-5.6 0-10.4 3.2-12.8 6.4l25.6-.8z"/><path d="M45.6 90.4c-2.4 4-7.2 7.2-12.8 7.2S22.4 95.2 20 92l25.6-1.6zm16.8 264c-4-.8-9.6.8-13.6 4.8s-5.6 9.6-4 13.6l17.6-18.4z"/></g><path d="M62.4 354.4c.8 4 0 9.6-4 13.6s-8.8 6.4-13.6 4.8l17.6-18.4z" fill="#0a7c38"/><g fill="#0d9b2e"><path d="M122.4 188.8c-.8 4 .8 9.6 4.8 13.6s9.6 5.6 13.6 4l-18.4-17.6z"/><path d="M122.4 188.8c4-.8 9.6 0 13.6 4s6.4 8.8 4.8 13.6l-18.4-17.6z"/></g><path d="M148 141.6c4 .8 9.6-.8 13.6-4.8s5.6-9.6 4-13.6L148 141.6z" fill="#0a7c38"/><path d="M148 141.6c-.8-4 0-9.6 4-13.6s8.8-6.4 13.6-4.8L148 141.6z" fill="#0d9b2e"/><path d="M409.6 7.2c8 7.2 19.2 22.4 19.2 40s-11.2 32.8-19.2 40v-80z" fill="#0a7c38"/><path d="M409.6 7.2c-16 7.2-19.2 22.4-19.2 40s3.2 32.8 19.2 40v-80zm-43.2 248c-3.2-12.8 2.4-29.6 14.4-42.4 12.8-12.8 28.8-17.6 42.4-14.4l-56.8 56.8z" fill="#0d9b2e"/><path d="M366.4 255.2c12.8 3.2 29.6-1.6 42.4-14.4 12.8-12.8 17.6-28.8 14.4-42.4l-56.8 56.8z" fill="#0a7c38"/><path d="M428.8 130.4c12.8-3.2 29.6 2.4 42.4 14.4 12.8 12.8 17.6 28.8 14.4 42.4l-56.8-56.8z" fill="#0d9b2e"/><path d="M428.8 130.4c-3.2 12.8 1.6 29.6 14.4 42.4s28.8 17.6 42.4 14.4l-56.8-56.8z" fill="#0a7c38"/><path d="M408.8 280.8c12.8-3.2 29.6 2.4 42.4 14.4 12.8 12.8 17.6 28.8 14.4 42.4l-56.8-56.8z" fill="#0d9b2e"/><path d="M408.8 280.8c-3.2 12.8 1.6 29.6 14.4 42.4s28.8 17.6 42.4 14.4l-56.8-56.8z" fill="#0a7c38"/><path d="M427.2 254.4c12.8-3.2 29.6 1.6 42.4 14.4s17.6 28.8 14.4 42.4l-56.8-56.8z" fill="#0d9b2e"/><path d="M427.2 254.4c-3.2 12.8 2.4 29.6 14.4 42.4 12.8 12.8 28.8 17.6 42.4 14.4l-56.8-56.8zm-17.6-16c7.2-11.2 22.4-19.2 40-19.2s32.8 8 40 19.2h-80z" fill="#0a7c38"/><path d="M409.6 238.4c7.2 11.2 22.4 19.2 40 19.2s32.8-8 40-19.2h-80z" fill="#0d9b2e"/><path d="M369.6 11.2c8 7.2 19.2 22.4 19.2 40s-11.2 32.8-19.2 40v-80z" fill="#0a7c38"/><path d="M369.6 11.2c-8 7.2-19.2 22.4-19.2 40s11.2 32.8 19.2 40v-80z" fill="#0d9b2e"/><path d="M453.6 64c1.6 8-1.6 18.4-9.6 25.6s-18.4 10.4-26.4 8l36-33.6z" fill="#0a7c38"/><path d="M453.6 64c-8-2.4-18.4.8-26.4 8s-11.2 17.6-9.6 25.6l36-33.6zm40 146.4c-4.8 7.2-14.4 11.2-24.8 11.2-11.2 0-20-5.6-24-12.8l48.8 1.6z" fill="#0d9b2e"/><path d="M493.6 210.4c-4-7.2-13.6-12.8-24-12.8-11.2 0-20.8 4-24.8 11.2l48.8 1.6z" fill="#0a7c38"/><path d="M345.6 161.6c4.8-7.2 14.4-11.2 24.8-11.2 11.2 0 20 5.6 24 12.8l-48.8-1.6z" fill="#0d9b2e"/><path d="M345.6 161.6c4 7.2 13.6 12.8 24 12.8 11.2 0 20.8-4 24.8-11.2l-48.8-1.6z" fill="#0a7c38"/><path d="M327.2 311.2c-1.6-8 1.6-18.4 9.6-25.6s18.4-10.4 26.4-8l-36 33.6z" fill="#0d9b2e"/><path d="M327.2 311.2c8 2.4 18.4-.8 26.4-8s11.2-17.6 9.6-25.6l-36 33.6z" fill="#0a7c38"/><path d="M440 121.6c4.8-7.2 14.4-11.2 24.8-11.2 11.2 0 20 5.6 24 12.8l-48.8-1.6z" fill="#0d9b2e"/><path d="M440 121.6c4 7.2 13.6 12.8 24 12.8 11.2 0 20.8-4 24.8-11.2l-48.8-1.6z" fill="#0a7c38"/><g fill="#0d9b2e"><path d="M464 28.8c.8 4-.8 9.6-4.8 13.6s-9.6 5.6-13.6 4L464 28.8z"/><path d="M464 28.8c-4-.8-9.6 0-13.6 4s-6.4 8.8-4.8 13.6L464 28.8zm-10.4 61.6c2.4-4 7.2-6.4 12.8-5.6 5.6 0 10.4 3.2 12.8 6.4l-25.6-.8z"/><path d="M453.6 90.4c2.4 4 7.2 6.4 12.8 6.4 5.6 0 10.4-2.4 12.8-5.6l-25.6-.8zm-16.8 264c4-.8 9.6.8 13.6 4.8s5.6 9.6 4 13.6l-17.6-18.4z"/></g><path d="M436.8 354.4c-.8 4 0 9.6 4 13.6s8.8 6.4 13.6 4.8l-17.6-18.4z" fill="#0a7c38"/><path d="M376.8 188.8c.8 4-.8 9.6-4.8 13.6s-9.6 5.6-13.6 4l18.4-17.6z" fill="#0d9b2e"/><path d="M376.8 188.8c-4-.8-9.6 0-13.6 4s-6.4 8.8-4.8 13.6l18.4-17.6z" fill="#0a7c38"/><g fill="#0d9b2e"><path d="M351.2 141.6c-4 .8-9.6-.8-13.6-4.8s-5.6-9.6-4-13.6l17.6 18.4z"/><path d="M351.2 141.6c.8-4 0-9.6-4-13.6s-8.8-6.4-13.6-4.8l17.6 18.4z"/></g><g fill="#c92d2d"><path d="M224.8 338.4c-5.6-25.6-39.2-62.4-87.2 13.6C88 427.2 46.4 416.8 24 385.6c0 0 4 37.6 29.6 50.4 0 0-32 18.4-42.4 16 0 0 31.2 52 99.2 13.6 60-34.4 75.2-145.6 106.4-126.4l11.2 11.2-3.2-12z"/><path d="M224.8 338.4c-5.6-25.6-39.2-62.4-87.2 13.6C88 427.2 46.4 416.8 24 385.6c0 0 4 37.6 29.6 50.4 0 0-32 18.4-42.4 16 0 0 31.2 52 99.2 13.6 60-34.4 75.2-145.6 106.4-126.4l11.2 11.2-3.2-12z"/></g><g fill="#a01515"><path d="M44.8 430.4c1.6.8 3.2 2.4 4.8 3.2l-4.8-3.2zm178.4-96.8l-8 4.8s.8 0 .8.8l11.2 11.2-3.2-12c0-1.6 0-3.2-.8-4.8z"/><path d="M52.8 436c-4 2.4-32 17.6-41.6 16 0 0 31.2 52 99.2 13.6 40.8-23.2 60.8-81.6 79.2-111.2L52.8 436z"/></g><g fill="#ef4343"><ellipse transform="rotate(-118.679 181.651 323.891)" cx="181.651" cy="323.887" rx="7.2" ry="19.2"/><ellipse transform="rotate(-118.633 160.68 342.429)" cx="160.68" cy="342.427" rx="3.2" ry="4.8"/></g><g fill="#c92d2d"><path d="M274.4 338.4c5.6-25.6 39.2-62.4 87.2 13.6 48.8 76 90.4 64.8 112.8 34.4 0 0-4 37.6-29.6 50.4 0 0 32 18.4 42.4 16 0 0-31.2 52-99.2 13.6C328 432 312.8 320.8 281.6 340l-11.2 11.2 4-12.8z"/><path d="M274.4 338.4c5.6-25.6 39.2-62.4 87.2 13.6 48.8 76 90.4 64.8 112.8 34.4 0 0-4 37.6-29.6 50.4 0 0 32 18.4 42.4 16 0 0-31.2 52-99.2 13.6C328 432 312.8 320.8 281.6 340l-11.2 11.2 4-12.8z"/></g><g fill="#a01515"><path d="M454.4 430.4c-1.6 1.6-3.2 2.4-4.8 3.2l4.8-3.2zM276 333.6l8 4.8s-.8 0-.8.8L272 350.4l3.2-12c0-1.6 0-3.2.8-4.8z"/><path d="M446.4 436c4 2.4 32 17.6 41.6 16 0 0-31.2 52-99.2 13.6C348 442.4 328 384 309.6 354.4L446.4 436z"/></g><g fill="#ef4343"><ellipse transform="rotate(118.679 318.079 323.774)" cx="318.074" cy="323.772" rx="7.2" ry="19.2"/><ellipse transform="rotate(118.633 338.275 342.87)" cx="338.274" cy="342.87" rx="3.2" ry="4.8"/></g><g fill="#08bf9c"><path d="M196.8 239.2s-13.6-14.4 2.4-36.8c16-21.6 50.4 40.8 50.4 40.8s-29.6 208-72 166.4c-49.6-48.8-86.4-6.4-86.4-6.4l13.6-20.8-19.2-1.6s33.6-28 64.8-11.2c44.8 24.8 58.4 4.8 63.2-21.6 4.8-25.6 2.4-84 2.4-84s-28 17.6-32 5.6-3.2-7.2-2.4-14.4c0-7.2 15.2-16 15.2-16z"/><path d="M302.4 239.2s13.6-14.4-2.4-36.8c-16-21.6-50.4 40.8-50.4 40.8s29.6 208 72 166.4c49.6-48.8 86.4-6.4 86.4-6.4l-13.6-20.8 19.2-1.6s-33.6-28-64.8-11.2c-44.8 24.8-58.4 4.8-63.2-21.6s-2.4-84-2.4-84 28 17.6 32 5.6 3.2-7.2 2.4-14.4c0-7.2-15.2-16-15.2-16z"/></g><path d="M335.2 400c0 34.4-44 61.6-85.6 61.6-41.6 0-85.6-28-85.6-61.6l10.4-94.4c0-34.4 33.6-61.6 74.4-61.6 41.6 0 75.2 28 75.2 61.6l11.2 94.4z" fill="#ffd524"/><path d="M249.6 461.6c41.6 0 85.6-28 85.6-61.6L324 305.6c0-34.4-33.6-61.6-75.2-61.6" fill="#efc40f"/><path d="M384.8 438.4c0 23.2-60.8 25.6-135.2 25.6s-135.2-3.2-135.2-25.6 60.8-68.8 135.2-68.8 135.2 45.6 135.2 68.8z" fill="#ffd524"/><path d="M249.6 369.6c74.4 0 135.2 45.6 135.2 68.8S324 464 249.6 464" fill="#efc40f"/><path d="M381.6 444.8c0 22.4-59.2 25.6-132 25.6s-132-2.4-132-25.6c0-22.4 59.2-25.6 132-25.6s132 3.2 132 25.6z" fill="#895811"/><path d="M249.6 469.6c-72.8 0-132-2.4-132-25.6 0-22.4 59.2-25.6 132-25.6" fill="#bc730a"/><circle cx="249.6" cy="209.6" r="23.2" fill="#ffd524"/><path d="M232.8 192.8c9.6-8.8 24-8.8 33.6 0 8.8 8.8 8.8 24 0 33.6" fill="#efc40f"/><g fill="#ffeb99"><ellipse transform="rotate(-122.582 213.666 272.94)" cx="213.665" cy="272.936" rx="9.6" ry="28.799"/><path d="M212.8 379.2c0 3.2-2.4 5.6-5.6 5.6-3.2 0-5.6-2.4-5.6-5.6s2.4-5.6 5.6-5.6 5.6 2.4 5.6 5.6z"/><circle cx="235.2" cy="379.2" r="5.6"/><circle cx="264" cy="379.2" r="5.6"/><circle cx="292" cy="379.2" r="5.6"/></g><path d="M266.4 472c0 20.8-4.8 27.2-16.8 27.2s-16.8-6.4-16.8-27.2 4.8-37.6 16.8-37.6 16.8 16.8 16.8 37.6z" fill="#ffd524"/><path d="M249.6 434.4c12 0 16.8 16.8 16.8 37.6s-4.8 27.2-16.8 27.2" fill="#efc40f"/></svg>